<svg version="1.1" id="Layer_1" xmlns="http://www.w3.org/2000/svg" xmlns:xlink="http://www.w3.org/1999/xlink" x="0px" y="0px"
	 width="100%" viewBox="0 0 693 408" enable-background="new 0 0 693 408" xml:space="preserve">
<path fill="#FEFEFE" opacity="1.000000" stroke="none" 
	d="
M498.000000,409.000000 
	C332.037567,409.000000 166.575150,409.000000 1.056361,409.000000 
	C1.056361,273.068481 1.056361,137.136917 1.056361,1.102676 
	C231.879074,1.102676 462.758209,1.102676 693.818665,1.102676 
	C693.818665,136.999802 693.818665,272.999878 693.818665,409.000000 
	C628.803650,409.000000 563.651794,409.000000 498.000000,409.000000 
M124.410339,273.201508 
	C123.792679,273.704773 123.175018,274.208038 122.215126,274.732819 
	C122.215126,274.732819 121.964645,274.967041 121.263931,274.961914 
	C119.764557,275.926239 118.265175,276.890564 116.347160,277.966980 
	C116.347160,277.966980 116.027313,278.259430 115.529572,278.215240 
	C115.326332,278.460846 115.123085,278.706451 114.269432,279.066193 
	C113.550552,279.554077 112.831673,280.041962 111.525581,280.426208 
	C110.958694,280.916626 110.391808,281.407074 109.391281,282.050049 
	C109.391281,282.050049 109.079285,282.387695 108.360008,281.994080 
	C107.953392,281.301697 107.546776,280.609344 107.503296,279.299866 
	C107.539764,278.829315 107.576233,278.358795 108.096817,277.505768 
	C108.394630,276.004608 108.692451,274.503479 109.168541,272.511169 
	C109.128456,272.341644 109.088379,272.172150 109.357246,271.434845 
	C109.442169,270.590271 109.527092,269.745667 110.181374,268.404602 
	C111.685997,256.246796 113.190620,244.089005 114.846619,231.195099 
	C114.845207,230.445267 114.843796,229.695419 115.247818,228.274551 
	C115.165489,224.541168 115.083160,220.807785 115.105499,216.167908 
	C114.974182,213.450729 114.842865,210.733551 114.907936,207.183990 
	C114.722801,205.789612 114.537666,204.395233 114.621696,202.167603 
	C113.946495,197.109375 113.271294,192.051163 112.773209,186.451935 
	C112.574249,185.949829 112.375290,185.447739 112.274666,184.161835 
	C112.049416,183.144119 111.824158,182.126389 111.684509,180.404205 
	C111.345772,179.269516 111.007034,178.134811 110.752686,176.225693 
	C108.554405,170.027313 106.356133,163.828934 104.240677,157.283554 
	C104.240677,157.283554 104.016129,157.006348 104.100319,156.299942 
	C103.804916,155.955551 103.509514,155.611160 103.410736,154.744492 
	C103.051552,154.132263 102.692360,153.520035 102.281502,152.268768 
	C101.896271,151.787872 101.511040,151.306976 101.139679,150.866013 
	C101.139679,150.866013 101.166115,150.824524 101.050591,150.137878 
	C97.404686,145.729706 94.250717,140.768204 90.025444,137.011688 
	C74.015518,122.777916 49.171413,125.772957 36.587013,143.188431 
	C36.327290,143.635757 36.067570,144.083099 35.348400,144.750717 
	C35.283443,145.479279 35.218483,146.207840 35.051823,147.530136 
	C35.345589,148.032806 35.639355,148.535461 35.926731,149.692856 
	C36.552505,150.536575 37.178280,151.380310 37.866261,152.133102 
	C37.866261,152.133102 37.756557,152.123032 37.862049,152.757965 
	C38.181778,153.028809 38.501507,153.299652 38.833324,153.878906 
	C38.833324,153.878906 39.118034,153.998077 39.243702,154.646301 
	C45.884548,160.912949 52.525391,167.179596 58.547298,172.862183 
	C65.302727,167.721603 70.906754,163.457169 76.809792,159.267883 
	C76.809792,159.267883 77.002686,159.027374 77.668274,159.043915 
	C78.007439,158.780823 78.346603,158.517731 79.380638,158.318069 
	C80.246246,158.020370 81.111862,157.722672 82.848175,157.503098 
	C84.583725,157.612686 86.319275,157.722290 88.056007,158.644089 
	C88.306511,159.404526 88.557022,160.164978 88.603851,161.703354 
	C89.065796,166.801025 89.527740,171.898712 89.644318,177.725220 
	C89.608017,183.163620 89.571709,188.602005 89.208076,194.833252 
	C89.229813,196.252274 89.251549,197.671310 88.885529,199.716614 
	C88.768806,202.469727 88.652092,205.222855 88.503990,208.190994 
	C88.503990,208.190994 88.678772,208.320099 88.197075,208.697189 
	C88.122574,209.458679 88.048073,210.220169 87.566566,211.769897 
	C87.455803,213.538254 87.345039,215.306595 86.811562,217.609482 
	C86.765198,218.731216 86.718834,219.852936 86.220383,221.670990 
	C85.909492,223.814041 85.598610,225.957077 84.887199,228.572815 
	C84.830719,229.380280 84.774239,230.187759 84.223022,231.693405 
	C83.571228,235.053940 82.919426,238.414459 81.860519,242.336349 
	C80.932922,246.222961 80.005325,250.109589 78.926346,254.671936 
	C78.489807,255.939575 78.053268,257.207214 77.072945,258.928314 
	C75.150414,264.631592 73.227875,270.334900 70.967041,276.771088 
	C69.925209,280.159393 68.883377,283.547699 67.199852,287.276855 
	C66.260834,289.799286 65.321815,292.321686 63.887627,295.300629 
	C63.050308,297.486450 62.212990,299.672272 60.841091,302.025208 
	C60.570126,302.686066 60.299164,303.346893 59.550476,304.355133 
	C59.405163,304.907349 59.259853,305.459595 58.674500,306.541779 
	C58.058086,308.010925 57.441669,309.480042 56.322208,311.335785 
	C55.807076,312.708954 55.291943,314.082123 54.180420,315.816254 
	C53.480862,317.220947 52.781303,318.625610 51.579792,320.351593 
	C51.402515,320.902893 51.225239,321.454163 50.637352,322.541260 
	C49.728027,324.344574 48.818703,326.147858 47.326614,328.295410 
	C45.559650,331.533783 43.792690,334.772125 41.460979,338.376373 
	C39.873314,341.201294 38.285652,344.026184 36.061760,347.081512 
	C30.916731,353.925629 30.792559,355.065704 34.779472,360.864716 
	C36.516289,363.244812 38.253105,365.624878 40.254803,368.617615 
	C45.559704,373.314331 50.738052,378.170410 56.278595,382.570404 
	C57.358734,383.428131 60.774094,383.243530 61.523960,382.290253 
	C64.763565,378.171906 67.412933,373.589264 70.788773,368.695801 
	C72.238838,366.177765 73.688911,363.659698 75.135750,361.025757 
	C75.135750,361.025757 75.022316,361.001617 75.692383,360.818634 
	C79.386726,356.866852 83.081070,352.915070 87.317047,348.550262 
	C91.862656,343.945312 96.408264,339.340363 101.546059,334.589783 
	C102.738777,333.469543 103.931488,332.349304 105.678986,331.081818 
	C105.901741,330.782166 106.124496,330.482483 106.910194,329.916748 
	C107.945885,328.924072 108.981575,327.931396 110.537300,326.891571 
	C110.730476,326.616180 110.923660,326.340820 111.729561,325.893372 
	C112.824272,324.931885 113.918983,323.970398 115.549324,322.919952 
	C115.760612,322.641205 115.971909,322.362488 116.755135,321.976898 
	C117.146004,321.570038 117.536865,321.163177 118.578743,320.736786 
	C119.545486,319.886719 120.512230,319.036652 121.810806,318.173035 
	C121.810806,318.173035 121.992355,317.894928 122.624016,317.862671 
	C123.217880,317.293915 123.811745,316.725159 124.771828,316.120941 
	C124.771828,316.120941 124.983574,315.820007 125.601524,315.789124 
	C126.201324,315.247040 126.801125,314.704956 127.765305,314.156891 
	C127.765305,314.156891 127.994095,313.873230 128.626236,313.848694 
	C129.235809,313.289948 129.845367,312.731201 130.798553,312.168304 
	C130.798553,312.168304 130.992096,311.884338 131.689529,311.846130 
	C135.788254,309.195740 139.886978,306.545349 144.662552,304.108582 
	C145.626495,303.491913 146.590439,302.875214 148.098404,302.197937 
	C148.386749,301.982788 148.675079,301.767639 149.639816,301.600769 
	C150.645706,301.046661 151.651596,300.492554 152.904053,300.748352 
	C153.286423,301.497009 153.668793,302.245697 154.011383,303.701660 
	C154.404587,304.815094 154.797806,305.928528 155.101074,307.794220 
	C156.414795,311.535339 157.728531,315.276459 159.088684,319.629944 
	C159.346741,319.937042 159.604782,320.244141 159.716187,320.778381 
	C159.716187,320.778381 159.834061,321.021698 159.860413,321.790558 
	C161.093506,324.933594 162.326614,328.076630 163.672516,331.947693 
	C164.498718,333.965668 165.324921,335.983673 166.159241,338.720795 
	C168.049713,342.336578 169.940186,345.952393 171.791122,350.253387 
	C172.842041,352.205231 173.892975,354.157043 175.009293,356.799683 
	C176.316772,358.936127 177.624252,361.072571 179.107208,363.842285 
	C180.003067,365.066833 180.898911,366.291351 181.890381,368.183502 
	C186.660095,376.189819 191.976822,383.717285 200.384567,389.431183 
	C202.610245,390.905579 204.835922,392.379944 207.477448,394.304199 
	C208.634872,394.169556 209.792297,394.034943 211.638306,394.016205 
	C212.090775,393.925842 212.543243,393.835480 213.775406,393.941864 
	C215.474274,393.523193 217.173126,393.104553 219.633224,392.868073 
	C221.413849,392.613403 223.194458,392.358704 225.544907,392.419891 
	C227.656433,391.843445 229.767975,391.266998 232.741302,390.866669 
	C234.159897,390.623993 235.578476,390.381317 237.683884,390.398834 
	C239.750977,389.838440 241.818069,389.278046 244.717239,388.891083 
	C245.807144,388.662781 246.897034,388.434479 248.652573,388.467224 
	C249.977676,387.981934 251.302780,387.496643 252.627884,387.011353 
	C252.110397,386.293121 251.592926,385.574890 250.799728,384.253235 
	C247.846039,381.175903 244.892349,378.098541 241.849701,374.345001 
	C237.921967,369.565430 233.994247,364.785889 230.017899,359.397308 
	C229.719620,359.132141 229.421356,358.866943 229.063324,358.088135 
	C228.727798,357.719574 228.392273,357.351013 228.002609,356.316498 
	C226.956467,354.880432 225.910339,353.444336 224.836548,351.321869 
	C223.217331,348.884918 221.598114,346.447937 219.903976,343.332977 
	C218.579102,341.224426 217.254211,339.115875 215.888000,336.299744 
	C214.277115,333.512207 212.666229,330.724640 210.987030,327.250610 
	C210.019043,325.494415 209.051056,323.738220 208.010971,321.244690 
	C206.354218,317.823090 204.697479,314.401489 202.999084,310.238983 
	C201.633469,307.175140 200.267853,304.111328 198.948730,300.453613 
	C198.652908,299.962555 198.357101,299.471527 197.991379,298.346771 
	C197.716370,298.035187 197.441376,297.723633 197.263123,296.716339 
	C196.512955,294.808075 195.762787,292.899841 195.007568,290.293671 
	C194.347046,288.859070 193.686523,287.424469 193.059845,285.252472 
	C193.028198,284.517090 192.996567,283.781738 193.773605,283.017120 
	C198.513107,281.670319 203.252594,280.323517 208.694412,279.022583 
	C209.127869,278.855652 209.561310,278.688721 210.539734,278.683105 
	C211.010971,278.421478 211.482208,278.159882 212.655273,277.973755 
	C213.775375,277.659454 214.895462,277.345123 216.825546,277.132721 
	C217.881470,276.918945 218.937393,276.705170 220.611862,276.711060 
	C221.391251,276.430634 222.170654,276.150208 223.605942,275.998199 
	C224.434158,275.780273 225.262390,275.562347 227.013092,275.396423 
	C231.685150,275.040314 236.357208,274.684204 241.029266,274.328094 
	C241.340805,273.810669 241.652344,273.293243 241.963882,272.775848 
	C237.598373,266.025696 233.451859,259.120148 228.803391,252.570816 
	C224.486816,246.489105 218.546326,243.829926 210.135574,245.966263 
	C208.418808,246.246490 206.702057,246.526718 204.511490,246.488312 
	C204.018692,246.687363 203.525909,246.886398 202.343201,246.967194 
	C201.900925,247.096344 201.458664,247.225494 200.218643,247.191086 
	C197.795944,247.671921 195.373260,248.152756 192.215225,248.463409 
	C189.048248,249.160782 185.881271,249.858154 182.392700,249.815369 
	C180.454346,242.244507 178.412399,234.698318 176.603348,227.096695 
	C174.226715,217.110245 172.033478,207.080154 169.815918,196.390259 
	C169.701294,195.954590 169.586685,195.518921 169.684677,194.273911 
	C168.350159,187.212234 167.015640,180.150574 165.744263,172.404724 
	C165.620361,171.967987 165.496445,171.531250 165.646790,170.286575 
	C165.026566,166.546143 164.406342,162.805695 163.872742,158.393387 
	C163.766617,157.958267 163.660477,157.523163 163.737106,156.245102 
	C162.447708,146.510300 161.158295,136.775513 159.957306,126.368538 
	C159.886246,125.924393 159.815186,125.480247 159.986313,124.414253 
	C159.781082,123.590424 159.575851,122.766586 159.441010,121.184586 
	C159.273315,120.445396 159.105621,119.706215 159.124741,118.180870 
	C158.903580,116.603477 158.682434,115.026077 158.635330,113.106674 
	C158.635330,113.106674 158.459778,112.765427 158.555176,112.439735 
	C158.555176,112.439735 158.381287,112.148300 158.496979,111.233147 
	C158.102417,107.789162 157.707870,104.345177 157.510056,100.268394 
	C157.389999,99.851158 157.269958,99.433929 157.408585,98.314857 
	C157.356384,97.821365 157.304184,97.327881 157.497711,95.973038 
	C157.214951,93.312309 156.932175,90.651573 156.717682,87.176331 
	C156.558609,85.835098 156.399521,84.493866 156.631210,82.345688 
	C156.387695,76.927971 156.187836,71.507858 155.889297,66.093170 
	C155.538437,59.729519 155.101944,53.370590 154.802261,46.168968 
	C154.563232,43.766613 154.324219,41.364258 154.342453,38.057983 
	C154.160019,29.374363 153.977585,20.690742 153.816010,11.299081 
	C148.926437,8.027501 144.013367,9.858043 138.401718,11.225278 
	C137.964371,11.381145 137.527008,11.537014 136.387177,11.452083 
	C131.041779,13.304031 124.768936,13.618006 121.910179,20.927788 
	C121.955315,32.954693 122.000443,44.981598 121.708374,57.729172 
	C121.912376,62.118515 122.116371,66.507858 122.207161,71.751396 
	C122.461555,75.511658 122.715950,79.271919 122.760056,83.505035 
	C122.835075,83.660553 122.910088,83.816063 122.896812,84.502274 
	C122.939674,84.676422 122.982529,84.850563 122.688934,85.692757 
	C122.971764,88.639030 123.254601,91.585312 123.418900,95.012329 
	C123.395844,95.352608 123.469406,95.670532 123.252335,96.677994 
	C123.622566,101.415901 123.992798,106.153809 124.221375,111.712761 
	C124.436714,114.133247 124.652054,116.553741 124.561363,119.650154 
	C124.855904,122.053665 125.150452,124.457184 125.292946,127.551506 
	C125.404121,128.004425 125.515297,128.457336 125.320747,129.760193 
	C125.667923,132.809479 126.015099,135.858749 126.276619,139.584091 
	C126.396637,140.017502 126.516647,140.450912 126.343620,141.755463 
	C126.462173,143.888748 126.413689,146.047516 126.734283,148.149994 
	C127.388382,152.439529 128.241211,156.698776 128.848572,161.732269 
	C128.861603,162.489594 128.874634,163.246902 128.696594,164.479187 
	C128.733490,164.645798 128.770386,164.812424 128.502930,165.646667 
	C133.006332,195.946579 137.490601,226.249374 142.070450,256.537720 
	C142.296005,258.029449 143.355728,259.394989 143.882629,261.803314 
	C143.802994,262.125092 143.723343,262.446899 143.276169,263.164886 
	C142.126221,263.951141 141.028229,264.830536 139.816681,265.506378 
	C136.028137,267.619659 132.196732,269.656097 127.861832,271.720581 
	C127.585625,271.919495 127.309418,272.118408 126.453552,272.266846 
	C125.978622,272.574493 125.503685,272.882141 124.410339,273.201508 
M351.137573,159.871628 
	C350.796936,160.110046 350.456299,160.348450 349.772217,159.781677 
	C349.512115,158.476486 349.210388,157.178024 348.997955,155.865128 
	C342.962280,118.568832 308.620758,88.888016 270.734314,88.232811 
	C220.263931,87.359978 181.176254,131.662704 188.203766,181.774521 
	C193.755615,221.363693 230.919388,253.097549 269.990784,252.251221 
	C270.336334,254.047333 270.645538,255.851334 271.032654,257.638458 
	C283.190735,313.764496 345.837585,340.485657 393.998260,309.683411 
	C415.105713,296.183655 427.802338,276.688812 431.161652,250.652588 
	C431.397522,249.852600 431.633362,249.052597 432.421265,248.918396 
	C432.897766,251.021896 433.440704,253.112854 433.841034,255.230759 
	C442.071777,298.775543 481.222656,327.490570 524.929810,322.023346 
	C559.803955,317.661041 590.713196,286.244873 594.937988,251.584915 
	C613.125122,251.633408 630.044739,247.138458 644.606934,236.076141 
	C664.790039,220.743835 678.128235,201.511948 676.976196,174.743820 
	C676.761414,169.753265 677.060425,164.742035 676.907104,159.746933 
	C676.795593,156.113495 676.908386,152.327194 675.935364,148.887970 
	C660.036804,92.693550 592.262085,69.828262 545.960022,105.238464 
	C528.128662,118.875336 517.509583,137.117950 514.640991,160.387360 
	C514.415955,161.379837 514.190857,162.372330 513.408691,162.754333 
	C510.595978,142.112885 502.505829,123.998657 486.796448,110.002243 
	C462.934265,88.742012 435.289398,82.160217 405.210999,93.239914 
	C374.681183,104.485893 356.757660,127.196259 351.137573,159.871628 
z"/>
<path fill="#F44639" opacity="1.000000" stroke="none" 
	d="
M515.067566,159.736740 
	C517.509583,137.117950 528.128662,118.875336 545.960022,105.238464 
	C592.262085,69.828262 660.036804,92.693550 675.935364,148.887970 
	C676.908386,152.327194 676.795593,156.113495 676.907104,159.746933 
	C677.060425,164.742035 676.761414,169.753265 676.976196,174.743820 
	C678.128235,201.511948 664.790039,220.743835 644.606934,236.076141 
	C630.044739,247.138458 613.125122,251.633408 594.154053,251.469543 
	C587.380127,250.455704 581.390259,249.557251 575.101318,248.446106 
	C573.240723,247.670639 571.672852,247.124512 570.118347,246.542603 
	C539.203247,234.970001 520.915100,213.068756 516.365112,180.212463 
	C523.715393,181.764160 530.634399,183.389694 537.619263,185.415405 
	C542.798645,204.826157 554.196411,218.404938 572.702209,226.287048 
	C580.004272,227.944000 587.064758,229.362579 594.566406,230.837463 
	C598.487915,230.659592 602.001831,230.656525 605.443176,230.155151 
	C636.784119,225.589111 659.069397,197.814331 657.238647,165.713287 
	C655.488281,135.021606 629.583496,109.777130 598.788208,108.752800 
	C566.740051,107.686790 539.266724,130.803024 535.078735,162.085510 
	C528.146973,161.340637 521.607239,160.538681 515.067566,159.736740 
z"/>
<path fill="#2598F3" opacity="1.000000" stroke="none" 
	d="
M269.709656,251.371765 
	C230.919388,253.097549 193.755615,221.363693 188.203766,181.774521 
	C181.176254,131.662704 220.263931,87.359978 270.734314,88.232811 
	C308.620758,88.888016 342.962280,118.568832 348.997955,155.865128 
	C349.210388,157.178024 349.512115,158.476486 349.971252,160.601562 
	C350.220032,167.765228 350.269775,174.109009 350.246582,180.463928 
	C350.173584,180.475067 350.030518,180.438416 349.749939,180.756897 
	C343.000488,215.356003 323.428894,237.972412 289.667542,247.726746 
	C290.336487,240.412247 291.152161,233.458603 292.343994,226.409607 
	C311.303772,218.140640 322.632141,203.881165 327.959869,184.128326 
	C328.703522,176.820679 329.306396,169.854935 329.957764,162.493103 
	C329.284973,158.857315 328.791779,155.546494 327.806946,152.388977 
	C318.582397,122.813316 289.120392,104.222488 259.664978,109.304031 
	C228.365326,114.703743 206.540619,141.506866 208.038437,173.112427 
	C209.482071,203.574417 234.570801,230.800186 269.743439,231.440567 
	C269.739838,238.359207 269.724762,244.865494 269.709656,251.371765 
z"/>
<path fill="#FEC20C" opacity="1.000000" stroke="none" 
	d="
M269.850220,251.811493 
	C269.724762,244.865494 269.739838,238.359207 269.880554,231.048447 
	C276.253082,195.589569 295.884399,172.838837 329.909241,162.889206 
	C329.306396,169.854935 328.703522,176.820679 327.597595,184.234634 
	C324.994019,185.648087 322.781830,186.426910 320.810791,187.608139 
	C305.837982,196.581100 295.316071,208.893784 291.967834,226.504944 
	C291.152161,233.458603 290.336487,240.412247 289.627380,248.141846 
	C293.608765,279.319550 319.250183,301.965027 350.073547,302.207245 
	C381.285217,302.452515 407.039856,280.145996 411.909882,248.950775 
	C418.475098,249.758118 424.661407,250.592575 430.847717,251.427017 
	C427.802338,276.688812 415.105713,296.183655 393.998260,309.683411 
	C345.837585,340.485657 283.190735,313.764496 271.032654,257.638458 
	C270.645538,255.851334 270.336334,254.047333 269.850220,251.811493 
z"/>
<path fill="#6BA13C" opacity="1.000000" stroke="none" 
	d="
M575.400330,248.658798 
	C581.390259,249.557251 587.380127,250.455704 593.718933,251.552765 
	C590.713196,286.244873 559.803955,317.661041 524.929810,322.023346 
	C481.222656,327.490570 442.071777,298.775543 433.841034,255.230759 
	C433.440704,253.112854 432.897766,251.021896 432.131042,248.190872 
	C431.885559,243.019287 431.930298,238.575226 432.318054,233.918884 
	C433.103516,231.258041 433.456390,228.789352 434.002075,226.364014 
	C441.188904,194.419907 460.155396,173.221756 491.863617,163.724854 
	C491.783875,170.627380 491.383728,177.184357 490.673767,183.919510 
	C484.825531,187.719025 478.766815,190.751251 473.858643,195.086182 
	C464.082672,203.720337 457.191986,214.367462 454.982635,227.927017 
	C454.317780,234.885696 453.651367,241.480530 452.943573,248.487427 
	C455.453552,274.046814 476.473511,296.587189 501.576324,301.094421 
	C529.999268,306.197754 556.791382,293.130157 568.788330,267.854218 
	C571.672119,261.778412 573.231750,255.074081 575.400330,248.658798 
z"/>
<path fill="#3B4A52" opacity="1.000000" stroke="none" 
	d="
M452.984955,248.075363 
	C453.651367,241.480530 454.317780,234.885696 455.301086,227.725143 
	C467.629272,221.893677 477.611389,214.070770 484.195679,202.671097 
	C487.622772,196.737549 489.821198,190.094315 492.784485,183.509277 
	C493.374237,175.866898 493.754211,168.486908 494.044128,160.710190 
	C488.526154,134.246414 473.289276,116.734749 447.342346,110.510834 
	C422.696136,104.598938 401.659393,112.305374 385.238098,131.751862 
	C377.745941,140.624207 373.968475,151.243652 371.394531,162.434448 
	C364.562103,161.452957 358.136719,160.543137 351.711304,159.633331 
	C356.757660,127.196259 374.681183,104.485893 405.210999,93.239914 
	C435.289398,82.160217 462.934265,88.742012 486.796448,110.002243 
	C502.505829,123.998657 510.595978,142.112885 513.613831,163.465973 
	C513.880737,167.263702 513.942505,170.349823 513.687744,173.750549 
	C513.229309,175.048431 513.038635,176.027481 512.952820,177.015625 
	C510.025513,210.735107 485.769226,239.483353 452.984955,248.075363 
z"/>
<path fill="#FEC10C" opacity="1.000000" stroke="none" 
	d="
M351.424438,159.752472 
	C358.136719,160.543137 364.562103,161.452957 371.699463,162.608017 
	C379.099548,165.708771 386.232605,167.827881 392.395874,171.551956 
	C414.652954,185.000397 427.564392,204.657700 429.413605,230.886566 
	C422.014282,229.437012 415.043823,227.972656 408.112122,226.076324 
	C405.907928,214.165558 400.309418,204.362305 391.549927,196.917587 
	C385.890228,192.107422 378.885101,188.880280 372.253601,184.698532 
	C364.789398,183.119827 357.554474,181.786316 350.319550,180.452805 
	C350.269775,174.109009 350.220032,167.765228 350.142944,161.004150 
	C350.456299,160.348450 350.796936,160.110046 351.424438,159.752472 
z"/>
<path fill="#6BA03B" opacity="1.000000" stroke="none" 
	d="
M514.004272,173.435928 
	C513.942505,170.349823 513.880737,167.263702 513.892395,163.771210 
	C514.190857,162.372330 514.415955,161.379837 514.854248,160.062042 
	C521.607239,160.538681 528.146973,161.340637 535.312683,162.400558 
	C536.863342,163.021133 537.776184,163.417709 538.714233,163.741440 
	C570.818298,174.821030 589.104919,197.317596 594.125244,230.781158 
	C587.064758,229.362579 580.004272,227.944000 572.620483,225.889862 
	C566.596619,206.763672 555.959778,192.535233 537.553467,185.015213 
	C530.634399,183.389694 523.715393,181.764160 516.040771,179.972733 
	C514.858215,177.683197 514.431213,175.559555 514.004272,173.435928 
z"/>
<path fill="#3B4A52" opacity="1.000000" stroke="none" 
	d="
M350.246582,180.463928 
	C357.554474,181.786316 364.789398,183.119827 372.290894,185.105011 
	C378.302643,204.651123 389.480774,218.810654 408.073364,226.508301 
	C415.043823,227.972656 422.014282,229.437012 429.619324,231.153839 
	C430.827637,232.314606 431.401367,233.222885 431.975067,234.131165 
	C431.930298,238.575226 431.885559,243.019287 431.855011,247.857971 
	C431.633362,249.052597 431.397522,249.852600 431.004700,251.039795 
	C424.661407,250.592575 418.475098,249.758118 411.607513,248.696106 
	C382.250092,239.983994 362.962555,221.705536 353.509705,193.259399 
	C352.115448,189.063675 351.178864,184.715866 350.030518,180.438416 
	C350.030518,180.438416 350.173584,180.475067 350.246582,180.463928 
z"/>
<path fill="#C4016B" opacity="1.000000" stroke="none" 
	d="
M143.643707,262.768738 
	C143.723343,262.446899 143.802994,262.125092 144.000519,260.907440 
	C142.441315,251.003372 140.764221,241.995178 139.456528,232.944550 
	C142.394196,231.608459 144.925842,230.232971 147.547836,229.059372 
	C148.673325,228.555618 150.515472,227.807388 151.132492,228.299057 
	C157.210861,233.142731 164.147736,228.808075 170.877533,230.900421 
	C170.123657,228.835892 169.596832,227.393143 168.810074,225.238510 
	C170.917557,225.144379 172.481873,225.074509 174.193176,225.350647 
	C177.537460,238.429703 180.734802,251.162766 183.951660,263.973602 
	C182.433838,263.864105 181.020981,263.436127 179.775589,263.726471 
	C172.884109,265.333038 166.062744,267.245880 159.158020,268.788177 
	C154.826218,269.755798 150.390182,270.256897 145.946655,270.582458 
	C145.142853,267.721344 144.393280,265.245026 143.643707,262.768738 
z"/>
<path fill="#C4015E" opacity="1.000000" stroke="none" 
	d="
M174.046204,225.004639 
	C172.481873,225.074509 170.917557,225.144379 168.810074,225.238510 
	C169.596832,227.393143 170.123657,228.835892 170.877533,230.900421 
	C164.147736,228.808075 157.210861,233.142731 151.132492,228.299057 
	C150.515472,227.807388 148.673325,228.555618 147.547836,229.059372 
	C144.925842,230.232971 142.394196,231.608459 139.415985,232.516876 
	C137.308273,220.422852 135.610504,208.714066 134.281601,197.036713 
	C139.950562,196.581436 145.259796,196.169647 150.540619,195.524902 
	C151.306442,195.431427 152.327209,194.334518 152.564148,193.510483 
	C153.933594,188.747910 157.103607,189.910019 160.474960,190.683151 
	C162.580002,191.165909 164.850067,190.929047 167.075226,191.334167 
	C167.893600,192.796555 168.682831,193.939911 169.472061,195.083252 
	C169.586685,195.518921 169.701294,195.954590 169.539215,197.004913 
	C169.400497,199.223511 169.405228,200.852325 169.699142,202.427155 
	C171.105194,209.961014 172.589630,217.480225 174.046204,225.004639 
z"/>
<path fill="#C40152" opacity="1.000000" stroke="none" 
	d="
M167.046082,191.015106 
	C164.850067,190.929047 162.580002,191.165909 160.474960,190.683151 
	C157.103607,189.910019 153.933594,188.747910 152.564148,193.510483 
	C152.327209,194.334518 151.306442,195.431427 150.540619,195.524902 
	C145.259796,196.169647 139.950562,196.581436 134.275330,196.617706 
	C132.901123,187.556396 131.984940,178.934418 130.836990,170.343399 
	C130.590363,168.497833 129.505829,166.764236 128.807281,164.979050 
	C128.770386,164.812424 128.733490,164.645798 129.197632,164.239929 
	C133.610855,163.689117 137.416382,160.767960 141.559326,163.724274 
	C142.005524,164.042664 144.011093,162.024460 145.377823,161.236771 
	C147.925308,159.768585 150.395218,157.853592 153.157700,157.157578 
	C155.972382,156.448425 159.100342,156.982574 162.334381,156.993805 
	C162.577652,157.015289 163.062622,157.096954 163.062622,157.096954 
	C163.062622,157.096954 163.554352,157.088043 163.554352,157.088043 
	C163.660477,157.523163 163.766617,157.958267 163.574371,159.016510 
	C163.974838,163.457932 164.673676,167.276215 165.372528,171.094513 
	C165.496445,171.531250 165.620361,171.967987 165.484604,173.003174 
	C165.832001,179.406128 166.439041,185.210617 167.046082,191.015106 
z"/>
<path fill="#C20E1F" opacity="1.000000" stroke="none" 
	d="
M137.089661,11.692879 
	C137.527008,11.537014 137.964371,11.381145 139.031281,11.478375 
	C144.372269,11.823356 149.083694,11.915238 153.795135,12.007121 
	C153.977585,20.690742 154.160019,29.374363 153.915466,38.763611 
	C153.571167,41.931610 153.653854,44.393982 153.790771,47.210503 
	C153.825699,48.040497 153.806396,48.516342 153.355820,48.993881 
	C151.938187,48.999252 150.884659,48.774624 149.975891,49.042000 
	C141.084854,51.657936 131.936752,46.633133 123.061722,49.518593 
	C123.018410,39.414764 123.001045,29.777609 123.246536,19.912119 
	C125.740257,18.107862 127.884331,16.385292 130.227295,14.998826 
	C132.404480,13.710484 134.793762,12.780588 137.089661,11.692879 
z"/>
<path fill="#C40147" opacity="1.000000" stroke="none" 
	d="
M162.091125,156.972336 
	C159.100342,156.982574 155.972382,156.448425 153.157700,157.157578 
	C150.395218,157.853592 147.925308,159.768585 145.377823,161.236771 
	C144.011093,162.024460 142.005524,164.042664 141.559326,163.724274 
	C137.416382,160.767960 133.610855,163.689117 129.293182,164.002441 
	C128.874634,163.246902 128.861603,162.489594 129.006912,160.952606 
	C129.086563,157.112701 129.269562,154.016922 128.859818,151.001694 
	C128.396408,147.591507 127.400841,144.253632 126.636673,140.884323 
	C126.516647,140.450912 126.396637,140.017502 126.560043,138.963150 
	C126.899521,136.567337 126.955589,134.792480 127.369003,132.973969 
	C131.527756,129.583984 135.946289,128.398071 140.952927,128.944168 
	C142.032898,129.061951 143.410995,128.859024 144.263092,128.255264 
	C149.167877,124.779968 154.017883,124.250229 159.011368,128.373779 
	C160.050812,138.145660 161.070969,147.559006 162.091125,156.972336 
z"/>
<path fill="#343D8A" opacity="1.000000" stroke="none" 
	d="
M37.094997,143.025131 
	C49.171413,125.772957 74.015518,122.777916 90.025444,137.011688 
	C94.250717,140.768204 97.404686,145.729706 100.632835,150.535065 
	C94.794662,150.623718 89.372253,150.346283 83.954193,150.000732 
	C68.464165,149.012833 52.913101,148.412994 38.083317,143.050079 
	C37.789314,142.943771 37.425983,143.029175 37.094997,143.025131 
z"/>
<path fill="#C30D29" opacity="1.000000" stroke="none" 
	d="
M123.087662,49.985264 
	C131.936752,46.633133 141.084854,51.657936 149.975891,49.042000 
	C150.884659,48.774624 151.938187,48.999252 153.423111,49.459221 
	C154.290848,59.617546 154.660004,69.312225 154.592194,79.004753 
	C150.124924,79.207054 146.187500,79.431885 144.020279,74.790695 
	C143.680420,74.062889 141.250137,73.505920 140.365601,73.971130 
	C135.394699,76.585526 128.407333,75.809067 125.742569,82.444839 
	C125.590820,82.822723 124.552582,82.844612 123.687782,83.017700 
	C123.448639,83.003220 122.970345,83.032181 122.970352,83.032181 
	C122.715950,79.271919 122.461555,75.511658 122.511383,71.009064 
	C122.860214,65.837410 122.904823,61.408077 122.968719,56.542484 
	C123.021217,54.065903 123.054436,52.025585 123.087662,49.985264 
z"/>
<path fill="#F1CC18" opacity="1.000000" stroke="none" 
	d="
M241.938660,375.021210 
	C244.892349,378.098541 247.846039,381.175903 250.880646,384.872986 
	C249.970032,386.397186 248.978485,387.301697 247.986938,388.206177 
	C246.897034,388.434479 245.807144,388.662781 244.046173,388.582214 
	C241.249115,388.895142 239.123093,389.516907 236.997070,390.138641 
	C235.578476,390.381317 234.159897,390.623993 232.052246,390.559082 
	C229.233810,390.869019 227.104446,391.486542 224.975082,392.104034 
	C223.194458,392.358704 221.413849,392.613403 218.981400,392.557251 
	C216.551620,392.746002 214.773666,393.245575 212.995697,393.745148 
	C212.543243,393.835480 212.090775,393.925842 211.087601,393.716034 
	C209.378464,393.562012 208.220032,393.708191 207.061600,393.854340 
	C204.835922,392.379944 202.610245,390.905579 200.159912,388.818390 
	C197.320816,385.140900 194.706375,382.076233 192.036331,378.946320 
	C206.875473,375.971100 221.221375,373.094757 235.835556,370.164642 
	C237.427490,371.431427 239.683075,373.226318 241.938660,375.021210 
z"/>
<path fill="#C50E41" opacity="1.000000" stroke="none" 
	d="
M158.992081,128.015213 
	C154.017883,124.250229 149.167877,124.779968 144.263092,128.255264 
	C143.410995,128.859024 142.032898,129.061951 140.952927,128.944168 
	C135.946289,128.398071 131.527756,129.583984 127.345634,132.630249 
	C126.518753,131.190201 126.072609,130.050232 125.626465,128.910263 
	C125.515297,128.457336 125.404121,128.004425 125.593529,126.907112 
	C125.551872,123.833221 125.209641,121.403725 124.867401,118.974228 
	C124.652054,116.553741 124.436714,114.133247 124.530716,111.000488 
	C124.901657,107.860237 124.963264,105.432266 125.403946,103.046783 
	C134.908997,106.815430 142.718933,103.676949 150.366287,98.168297 
	C151.469788,102.295761 154.279541,101.923439 157.313324,100.901192 
	C157.707870,104.345177 158.102417,107.789162 158.173767,111.691132 
	C158.053635,112.354546 158.256714,112.559990 158.459778,112.765427 
	C158.459778,112.765427 158.635330,113.106674 158.395508,113.688042 
	C158.416443,115.835281 158.677185,117.401154 158.937927,118.967026 
	C159.105621,119.706215 159.273315,120.445396 159.076294,121.672226 
	C159.055740,123.118622 159.399933,124.077362 159.744125,125.036102 
	C159.815186,125.480247 159.886246,125.924393 159.706879,126.802460 
	C159.232437,127.454697 159.077637,127.714310 158.992081,128.015213 
z"/>
<path fill="#C30932" opacity="1.000000" stroke="none" 
	d="
M157.411682,100.584793 
	C154.279541,101.923439 151.469788,102.295761 150.366287,98.168297 
	C142.718933,103.676949 134.908997,106.815430 125.385536,102.616608 
	C124.538551,100.084671 124.089066,98.025383 123.639580,95.966095 
	C123.469406,95.670532 123.395844,95.352608 123.654358,94.318306 
	C123.601677,90.757751 123.313530,87.891228 123.025375,85.024696 
	C122.982529,84.850563 122.939674,84.676422 123.157959,84.151840 
	C123.661674,83.593384 123.830948,83.336983 123.926926,83.032188 
	C124.552582,82.844612 125.590820,82.822723 125.742569,82.444839 
	C128.407333,75.809067 135.394699,76.585526 140.365601,73.971130 
	C141.250137,73.505920 143.680420,74.062889 144.020279,74.790695 
	C146.187500,79.431885 150.124924,79.207054 154.614288,79.340385 
	C155.462387,80.836327 155.851410,81.994476 156.240448,83.152634 
	C156.399521,84.493866 156.558609,85.835098 156.441635,87.894638 
	C156.137817,91.365814 156.110046,94.118675 156.074615,97.200653 
	C156.427933,98.025406 156.788925,98.521049 157.149918,99.016693 
	C157.269958,99.433929 157.389999,99.851158 157.411682,100.584793 
z"/>
<path fill="#029ADD" opacity="1.000000" stroke="none" 
	d="
M112.112793,280.529816 
	C112.831673,280.041962 113.550552,279.554077 114.833832,279.000092 
	C115.727936,278.821045 115.937630,278.596191 116.027313,278.259430 
	C116.027313,278.259430 116.347160,277.966980 116.921028,277.973938 
	C117.987022,277.980835 118.479141,277.980774 119.219948,278.171631 
	C120.116035,280.211853 120.449638,282.257843 121.464302,283.877014 
	C126.272682,291.550293 131.266937,299.107056 136.027496,306.447083 
	C134.022552,308.612030 132.507324,310.248169 130.992096,311.884338 
	C130.992096,311.884338 130.798553,312.168304 130.271194,312.135742 
	C129.160599,312.693207 128.577347,313.283203 127.994095,313.873230 
	C127.994095,313.873230 127.765305,314.156891 127.236816,314.127014 
	C126.133408,314.671417 125.558495,315.245728 124.983582,315.820007 
	C124.983574,315.820007 124.771828,316.120941 124.236450,316.110077 
	C123.131493,316.697784 122.561928,317.296356 121.992355,317.894928 
	C121.992355,317.894928 121.810806,318.173035 121.279144,318.135132 
	C119.836441,318.398529 118.925392,318.699829 117.740540,318.807983 
	C115.579292,316.178070 113.579567,313.818970 111.829330,311.287354 
	C108.804031,306.911346 105.933556,302.428314 102.997498,297.575562 
	C103.016144,295.778442 103.035423,294.395966 103.366013,292.834900 
	C104.785187,289.771271 105.893044,286.886261 107.294243,283.968719 
	C108.084808,283.420044 108.582047,282.903870 109.079285,282.387695 
	C109.079285,282.387695 109.391281,282.050049 109.910927,282.010132 
	C110.991310,281.490082 111.552048,281.009949 112.112793,280.529816 
z"/>
<path fill="#EDC02D" opacity="1.000000" stroke="none" 
	d="
M241.894180,374.683105 
	C239.683075,373.226318 237.427490,371.431427 235.835556,370.164642 
	C221.221375,373.094757 206.875473,375.971100 192.036331,378.946320 
	C194.706375,382.076233 197.320816,385.140900 199.968765,388.539551 
	C191.976822,383.717285 186.660095,376.189819 181.939178,367.450684 
	C184.317902,366.318054 186.667450,366.007538 188.974167,365.501862 
	C196.236847,363.909698 203.475876,362.209747 210.738647,360.618073 
	C216.500214,359.355438 222.283249,358.190674 228.056747,356.982452 
	C228.392273,357.351013 228.727798,357.719574 229.134628,358.646790 
	C229.492798,359.472382 229.779663,359.739349 230.066528,360.006317 
	C233.994247,364.785889 237.921967,369.565430 241.894180,374.683105 
z"/>
<path fill="#2E428F" opacity="1.000000" stroke="none" 
	d="
M36.841003,143.106781 
	C37.425983,143.029175 37.789314,142.943771 38.083317,143.050079 
	C52.913101,148.412994 68.464165,149.012833 83.954193,150.000732 
	C89.372253,150.346283 94.794662,150.623718 100.690598,150.878387 
	C101.166115,150.824524 101.139679,150.866013 101.124008,151.186310 
	C101.516609,151.973679 101.924889,152.440735 102.333168,152.907806 
	C102.692360,153.520035 103.051552,154.132263 103.317184,155.348175 
	C103.487793,156.303345 103.751961,156.654846 104.016129,157.006348 
	C104.016129,157.006348 104.240677,157.283554 104.121620,157.858505 
	C102.797401,159.292755 101.642670,160.791992 100.377640,160.891708 
	C96.543869,161.193878 92.667374,160.954071 88.807526,160.925415 
	C88.557022,160.164978 88.306511,159.404526 87.969101,157.892395 
	C85.913948,157.235458 83.945709,157.330215 81.977470,157.424988 
	C81.111862,157.722672 80.246246,158.020370 78.697693,158.274841 
	C77.677391,158.496872 77.340042,158.762131 77.002686,159.027374 
	C77.002686,159.027374 76.809792,159.267883 76.229836,159.144653 
	C70.975090,158.234299 66.171112,156.361938 61.654034,156.899658 
	C53.731361,157.842773 46.372875,156.979355 39.118034,153.998077 
	C39.118034,153.998077 38.833324,153.878906 38.789036,153.396042 
	C38.415352,152.649796 38.085957,152.386414 37.756561,152.123032 
	C37.756557,152.123032 37.866261,152.133102 37.881489,151.836166 
	C37.242188,150.705521 36.587658,149.871826 35.933128,149.038116 
	C35.639355,148.535461 35.345589,148.032806 35.344063,147.005402 
	C35.693485,145.830582 35.750664,145.180496 35.807846,144.530426 
	C36.067570,144.083099 36.327290,143.635757 36.841003,143.106781 
z"/>
<path fill="#C92C78" opacity="1.000000" stroke="none" 
	d="
M174.193161,225.350647 
	C172.589630,217.480225 171.105194,209.961014 169.699142,202.427155 
	C169.405228,200.852325 169.400497,199.223511 169.511948,197.344208 
	C172.033478,207.080154 174.226715,217.110245 176.603348,227.096695 
	C178.412399,234.698318 180.454346,242.244507 182.591522,250.556213 
	C184.234528,257.109039 185.678726,262.920990 187.095459,269.057434 
	C187.358459,269.915436 187.648926,270.448914 188.013733,271.171082 
	C188.088074,271.359711 188.077927,271.765137 188.115387,272.007874 
	C188.271194,272.572327 188.484741,272.807495 188.898254,273.310791 
	C189.050568,274.400909 189.098114,275.136353 188.788025,275.868011 
	C186.793488,275.557465 185.054153,274.731659 183.536789,275.030945 
	C175.583496,276.599854 167.647461,278.298828 159.786819,280.276154 
	C156.049515,281.216309 152.493118,282.875610 148.648041,283.918884 
	C148.249451,282.210999 148.057587,280.793365 147.854294,279.107727 
	C147.631531,278.566010 147.420212,278.292267 147.085114,277.741608 
	C146.934082,277.064117 146.906845,276.663544 146.881302,276.051208 
	C146.837860,275.551178 146.706253,275.310089 146.337769,274.720703 
	C146.125214,273.205872 146.063065,272.086578 146.000916,270.967285 
	C150.390182,270.256897 154.826218,269.755798 159.158020,268.788177 
	C166.062744,267.245880 172.884109,265.333038 179.775589,263.726471 
	C181.020981,263.436127 182.433838,263.864105 183.951660,263.973602 
	C180.734802,251.162766 177.537460,238.429703 174.193161,225.350647 
z"/>
<path fill="#029ADD" opacity="1.000000" stroke="none" 
	d="
M77.616737,258.474854 
	C78.053268,257.207214 78.489807,255.939575 79.400299,254.335983 
	C83.476723,254.952194 87.101204,255.828995 90.676842,256.873077 
	C97.074181,258.741089 103.486839,259.972992 110.086670,258.463562 
	C109.918442,262.227905 109.765236,265.564484 109.612022,268.901093 
	C109.527092,269.745667 109.442169,270.590271 108.968521,271.813416 
	C108.387039,272.461731 108.194275,272.731476 107.995743,272.997131 
	C107.989975,272.993011 107.970604,272.982635 107.511490,272.988403 
	C103.599571,272.906097 99.874229,273.624512 96.748589,272.568268 
	C89.408203,270.087677 82.220673,270.732635 74.927376,271.591461 
	C75.836868,266.949554 76.726807,262.712219 77.616737,258.474854 
z"/>
<path fill="#D7826C" opacity="1.000000" stroke="none" 
	d="
M163.559723,331.219666 
	C162.326614,328.076630 161.093506,324.933594 160.266754,321.355591 
	C169.895523,319.278473 179.174362,317.893982 188.317993,315.891876 
	C193.343155,314.791626 198.140610,312.651276 203.040726,310.979889 
	C204.697479,314.401489 206.354218,317.823090 207.617706,321.619812 
	C194.729141,324.532104 182.230637,327.053558 169.741745,329.621765 
	C167.659592,330.049988 165.619339,330.681885 163.559723,331.219666 
z"/>
<path fill="#8BC7F0" opacity="1.000000" stroke="none" 
	d="
M34.636642,360.165802 
	C30.792559,355.065704 30.916731,353.925629 36.731758,347.188721 
	C40.352573,347.940460 43.318035,349.191711 46.251591,349.120941 
	C57.027874,348.860901 67.588478,353.438171 78.462494,350.509583 
	C78.611000,350.469574 78.899986,350.951202 79.063004,351.530823 
	C77.675835,354.915375 76.349083,357.958496 75.022324,361.001617 
	C75.022316,361.001617 75.135750,361.025757 74.756020,361.071808 
	C72.197037,361.545471 69.819336,362.760956 67.871391,362.270294 
	C56.890263,359.504333 45.903004,357.953491 34.636642,360.165802 
z"/>
<path fill="#73BDED" opacity="1.000000" stroke="none" 
	d="
M42.025726,338.010498 
	C43.792690,334.772125 45.559650,331.533783 47.942516,328.352966 
	C49.851673,328.940002 51.129425,329.885376 52.440598,329.934204 
	C64.708435,330.391510 76.982002,330.695160 89.194397,331.414337 
	C87.149681,335.535553 85.164482,339.285706 82.745178,343.023743 
	C74.957886,342.648468 67.592705,342.439972 60.255516,341.870575 
	C54.915714,341.456177 49.602547,340.632477 44.304283,339.817200 
	C43.471806,339.689087 42.781673,338.635925 42.025726,338.010498 
z"/>
<path fill="#D47371" opacity="1.000000" stroke="none" 
	d="
M203.019897,310.609436 
	C198.140610,312.651276 193.343155,314.791626 188.317993,315.891876 
	C179.174362,317.893982 169.895523,319.278473 160.253571,320.971191 
	C159.834061,321.021698 159.716187,320.778381 159.760956,320.355713 
	C159.551224,319.627869 159.296738,319.322723 159.042252,319.017578 
	C157.728531,315.276459 156.414795,311.535339 155.436157,307.593323 
	C157.115189,311.884857 160.003082,311.997742 164.029190,310.937897 
	C170.351959,309.273407 176.924606,308.552551 183.238022,306.859955 
	C188.602051,305.421875 194.825470,306.025269 198.902222,301.047485 
	C200.267853,304.111328 201.633469,307.175140 203.019897,310.609436 
z"/>
<path fill="#57B3E9" opacity="1.000000" stroke="none" 
	d="
M54.776810,315.455292 
	C55.291943,314.082123 55.807076,312.708954 57.017185,311.154144 
	C62.500164,310.650787 67.304878,309.909821 72.072472,310.099976 
	C80.406944,310.432343 88.718597,311.337006 97.025848,312.385254 
	C96.319763,315.165588 95.627640,317.562500 94.700546,320.149475 
	C93.706589,321.240356 92.947594,322.141235 91.708549,323.029236 
	C78.944061,322.256104 66.659630,321.495819 54.351246,320.734009 
	C54.566998,318.057831 54.671902,316.756561 54.776810,315.455292 
z"/>
<path fill="#068ED2" opacity="1.000000" stroke="none" 
	d="
M94.935516,319.959412 
	C95.627640,317.562500 96.319763,315.165588 97.290382,312.156342 
	C98.074898,309.704254 98.580925,307.864532 99.342926,305.786682 
	C100.411949,303.035980 101.224976,300.523346 102.278091,298.007904 
	C102.518166,298.005096 102.998123,297.990204 102.998123,297.990204 
	C105.933556,302.428314 108.804031,306.911346 111.829330,311.287354 
	C113.579567,313.818970 115.579292,316.178070 117.726425,319.100647 
	C117.966652,319.976410 117.947189,320.366333 117.927727,320.756287 
	C117.536865,321.163177 117.146004,321.570038 116.207832,322.085510 
	C115.444916,322.465759 115.229309,322.737335 115.013687,323.008911 
	C113.918983,323.970398 112.824272,324.931885 111.179688,326.036438 
	C110.312576,326.341339 110.108391,326.594421 110.017258,326.938721 
	C108.981575,327.931396 107.945885,328.924072 106.327255,330.084534 
	C105.537605,330.577911 105.330902,330.903473 105.124207,331.229034 
	C103.931488,332.349304 102.738777,333.469543 101.212486,334.315430 
	C98.897781,329.347198 96.916649,324.653290 94.935516,319.959412 
z"/>
<path fill="#8AB748" opacity="1.000000" stroke="none" 
	d="
M211.005630,246.135956 
	C218.546326,243.829926 224.486816,246.489105 228.803391,252.570816 
	C233.451859,259.120148 237.598373,266.025696 241.963882,272.775848 
	C241.652344,273.293243 241.340805,273.810669 241.029266,274.328094 
	C236.357208,274.684204 231.685150,275.040314 226.527679,274.932892 
	C225.611908,265.434601 218.899551,259.792664 214.464615,252.907013 
	C213.099075,250.786880 212.147018,248.400452 211.005630,246.135956 
z"/>
<path fill="#7FC2EF" opacity="1.000000" stroke="none" 
	d="
M41.743351,338.193420 
	C42.781673,338.635925 43.471806,339.689087 44.304283,339.817200 
	C49.602547,340.632477 54.915714,341.456177 60.255516,341.870575 
	C67.592705,342.439972 74.957886,342.648468 82.674103,343.393066 
	C82.622208,345.459045 82.207283,347.143585 81.503891,348.922119 
	C80.518082,349.740509 79.820755,350.464935 79.123421,351.189362 
	C78.899986,350.951202 78.611000,350.469574 78.462494,350.509583 
	C67.588478,353.438171 57.027874,348.860901 46.251591,349.120941 
	C43.318035,349.191711 40.352573,347.940460 37.049873,347.073547 
	C38.285652,344.026184 39.873314,341.201294 41.743351,338.193420 
z"/>
<path fill="#23A5E4" opacity="1.000000" stroke="none" 
	d="
M107.000908,284.001221 
	C105.893044,286.886261 104.785187,289.771271 102.927132,292.829498 
	C93.339767,292.334717 84.511047,291.445557 75.661285,291.107239 
	C72.103813,290.971252 69.204102,290.688568 67.841537,286.936005 
	C68.883377,283.547699 69.925209,280.159393 71.412689,276.400330 
	C72.226257,276.008728 72.594193,275.987885 72.981583,276.374939 
	C73.159531,280.177704 75.621941,279.884308 77.978462,280.028442 
	C84.595406,280.433167 91.212997,280.873474 97.813072,281.485748 
	C100.531876,281.737976 103.206573,282.465820 106.136307,283.087891 
	C106.581161,283.466034 106.791031,283.733643 107.000908,284.001221 
z"/>
<path fill="#068ED2" opacity="1.000000" stroke="none" 
	d="
M110.101685,258.035797 
	C103.486839,259.972992 97.074181,258.741089 90.676842,256.873077 
	C87.101204,255.828995 83.476723,254.952194 79.475983,253.998108 
	C80.005325,250.109589 80.932922,246.222961 82.512001,242.117432 
	C89.303673,242.962708 95.648636,243.397308 101.514465,245.305099 
	C105.656250,246.652145 108.849884,247.096817 112.063095,244.461823 
	C111.410011,249.286087 110.755852,253.660934 110.101685,258.035797 
z"/>
<path fill="#D06371" opacity="1.000000" stroke="none" 
	d="
M198.925476,300.750549 
	C194.825470,306.025269 188.602051,305.421875 183.238022,306.859955 
	C176.924606,308.552551 170.351959,309.273407 164.029190,310.937897 
	C160.003082,311.997742 157.115189,311.884857 155.481140,307.217194 
	C154.797806,305.928528 154.404587,304.815094 154.443619,303.345337 
	C155.536087,302.946777 156.212143,302.981995 156.854187,302.850769 
	C168.126434,300.547028 179.368652,298.083069 190.680023,295.992676 
	C193.866882,295.403717 194.590759,293.538910 195.012619,290.991577 
	C195.762787,292.899841 196.512955,294.808075 197.241425,297.388306 
	C197.500244,298.367035 197.780762,298.673737 198.061279,298.980469 
	C198.357101,299.471527 198.652908,299.962555 198.925476,300.750549 
z"/>
<path fill="#73AD7A" opacity="1.000000" stroke="none" 
	d="
M189.145645,275.871826 
	C189.098114,275.136353 189.050568,274.400909 188.880402,273.064880 
	C188.626144,272.139038 188.399521,271.905975 188.077927,271.765137 
	C188.077927,271.765137 188.088074,271.359711 188.026749,270.860596 
	C187.684586,269.818634 187.403748,269.275787 187.122910,268.732971 
	C185.678726,262.920990 184.234528,257.109039 182.752319,250.926300 
	C185.881271,249.858154 189.048248,249.160782 192.496948,248.825043 
	C190.102661,253.227020 192.491333,257.277740 194.612152,259.656677 
	C198.178101,263.656677 201.190353,267.724609 203.423264,272.567810 
	C204.502487,274.908691 206.442078,276.852905 207.992096,278.976715 
	C203.252594,280.323517 198.513107,281.670319 193.120270,282.850952 
	C191.963974,281.785614 191.461029,280.886444 190.959381,279.638550 
	C190.847229,278.840149 190.733765,278.390472 190.625092,277.733643 
	C190.501663,277.247284 190.284576,277.092041 189.990845,277.033813 
	C190.003082,277.006836 189.944626,277.016571 189.895294,276.767853 
	C189.592728,276.310699 189.339493,276.102234 189.102417,275.897552 
	C189.118576,275.901306 189.145645,275.871826 189.145645,275.871826 
z"/>
<path fill="#DA8E65" opacity="1.000000" stroke="none" 
	d="
M163.616119,331.583679 
	C165.619339,330.681885 167.659592,330.049988 169.741745,329.621765 
	C182.230637,327.053558 194.729141,324.532104 207.653748,321.988495 
	C209.051056,323.738220 210.019043,325.494415 210.810120,327.881622 
	C207.736038,329.678802 204.929672,331.247650 201.922455,331.925720 
	C195.995346,333.262207 189.529968,333.101440 184.079025,335.420807 
	C178.083740,337.971802 172.231934,337.945648 166.151123,338.001648 
	C165.324921,335.983673 164.498718,333.965668 163.616119,331.583679 
z"/>
<path fill="#E2A255" opacity="1.000000" stroke="none" 
	d="
M174.943909,356.108887 
	C173.892975,354.157043 172.842041,352.205231 171.862244,349.468750 
	C172.683426,347.801331 173.300171,346.328217 174.203583,346.124207 
	C188.090195,342.987946 202.014099,340.016815 215.929337,337.007324 
	C217.254211,339.115875 218.579102,341.224426 219.603500,343.847168 
	C215.504135,345.204437 211.708191,346.061157 207.905731,346.887817 
	C199.995911,348.607452 192.035187,350.123962 184.193817,352.112152 
	C180.979370,352.927155 178.019562,354.746460 174.943909,356.108887 
z"/>
<path fill="#0288CE" opacity="1.000000" stroke="none" 
	d="
M112.062012,244.012405 
	C108.849884,247.096817 105.656250,246.652145 101.514465,245.305099 
	C95.648636,243.397308 89.303673,242.962708 82.715553,241.836746 
	C82.919426,238.414459 83.571228,235.053940 84.680817,231.347275 
	C85.420334,230.997833 85.701927,230.989899 86.446892,230.984985 
	C90.058510,231.019043 93.210121,230.960770 96.353996,231.090134 
	C102.188759,231.330261 108.019012,231.679977 113.848434,232.390289 
	C113.251144,236.535156 112.656578,240.273773 112.062012,244.012405 
z"/>
<path fill="#65B8EB" opacity="1.000000" stroke="none" 
	d="
M54.478615,315.635773 
	C54.671902,316.756561 54.566998,318.057831 54.351246,320.734009 
	C66.659630,321.495819 78.944061,322.256104 91.630341,323.395630 
	C91.106087,326.197632 90.180000,328.620422 89.253914,331.043243 
	C76.982002,330.695160 64.708435,330.391510 52.440598,329.934204 
	C51.129425,329.885376 49.851673,328.940002 48.233898,328.180847 
	C48.818703,326.147858 49.728027,324.344574 51.127266,322.244568 
	C51.772034,321.308685 51.926891,320.669495 52.081749,320.030304 
	C52.781303,318.625610 53.480862,317.220947 54.478615,315.635773 
z"/>
<path fill="#DE995F" opacity="1.000000" stroke="none" 
	d="
M215.908661,336.653534 
	C202.014099,340.016815 188.090195,342.987946 174.203583,346.124207 
	C173.300171,346.328217 172.683426,347.801331 171.881989,349.126160 
	C169.940186,345.952393 168.049713,342.336578 166.155182,338.361206 
	C172.231934,337.945648 178.083740,337.971802 184.079025,335.420807 
	C189.529968,333.101440 195.995346,333.262207 201.922455,331.925720 
	C204.929672,331.247650 207.736038,329.678802 210.844269,328.224854 
	C212.666229,330.724640 214.277115,333.512207 215.908661,336.653534 
z"/>
<path fill="#CD5472" opacity="1.000000" stroke="none" 
	d="
M195.010101,290.642639 
	C194.590759,293.538910 193.866882,295.403717 190.680023,295.992676 
	C179.368652,298.083069 168.126434,300.547028 156.854187,302.850769 
	C156.212143,302.981995 155.536087,302.946777 154.463501,302.991699 
	C153.668793,302.245697 153.286423,301.497009 152.735977,300.216461 
	C152.334030,299.450562 152.100174,299.216553 151.883392,298.646484 
	C151.949692,297.866547 151.998917,297.422699 152.408630,296.940186 
	C158.999573,294.931396 165.171738,292.744720 171.475876,291.048523 
	C178.597382,289.132385 185.837479,287.656982 193.026001,285.989868 
	C193.686523,287.424469 194.347046,288.859070 195.010101,290.642639 
z"/>
<path fill="#95CCF2" opacity="1.000000" stroke="none" 
	d="
M34.708057,360.515259 
	C45.903004,357.953491 56.890263,359.504333 67.871391,362.270294 
	C69.819336,362.760956 72.197037,361.545471 74.757629,361.129761 
	C73.688911,363.659698 72.238838,366.177765 70.122452,368.885742 
	C64.321732,371.900574 58.929714,371.881744 53.375416,370.661865 
	C48.933357,369.686218 44.453182,368.884094 39.989922,368.004974 
	C38.253105,365.624878 36.516289,363.244812 34.708057,360.515259 
z"/>
<path fill="#15A1D4" opacity="1.000000" stroke="none" 
	d="
M131.340820,311.865234 
	C132.507324,310.248169 134.022552,308.612030 136.027496,306.447083 
	C131.266937,299.107056 126.272682,291.550293 121.464302,283.877014 
	C120.449638,282.257843 120.116035,280.211853 119.402168,277.920349 
	C120.212021,276.641113 121.088333,275.804077 121.964645,274.967041 
	C121.964645,274.967041 122.215126,274.732819 122.726021,274.803101 
	C123.840347,274.608459 124.443779,274.343567 125.370842,274.048767 
	C126.127785,274.003021 126.561104,273.987244 127.030762,274.324219 
	C132.816422,282.472656 135.196823,292.625885 143.797958,298.474915 
	C144.622208,299.035461 144.624222,300.805084 144.765717,302.164734 
	C144.344223,302.842346 144.164963,303.368683 143.985718,303.894989 
	C139.886978,306.545349 135.788254,309.195740 131.340820,311.865234 
z"/>
<path fill="#79B269" opacity="1.000000" stroke="none" 
	d="
M208.343262,278.999634 
	C206.442078,276.852905 204.502487,274.908691 203.423264,272.567810 
	C201.190353,267.724609 198.178101,263.656677 194.612152,259.656677 
	C192.491333,257.277740 190.102661,253.227020 192.864609,248.910156 
	C195.373260,248.152756 197.795944,247.671921 200.623932,247.621857 
	C203.846451,253.028595 206.805740,257.930786 209.438736,263.002411 
	C211.816422,267.582245 213.837326,272.347382 216.015549,277.030823 
	C214.895462,277.345123 213.775375,277.659454 212.156570,277.733032 
	C211.103500,277.835449 210.549133,278.178619 209.994766,278.521790 
	C209.561310,278.688721 209.127869,278.855652 208.343262,278.999634 
z"/>
<path fill="#E5AC4D" opacity="1.000000" stroke="none" 
	d="
M174.976608,356.454285 
	C178.019562,354.746460 180.979370,352.927155 184.193817,352.112152 
	C192.035187,350.123962 199.995911,348.607452 207.905731,346.887817 
	C211.708191,346.061157 215.504135,345.204437 219.640961,344.186157 
	C221.598114,346.447937 223.217331,348.884918 224.483856,351.614563 
	C222.856003,351.726227 221.500153,351.168549 220.318039,351.421753 
	C207.253418,354.220551 194.203384,357.092560 181.196548,360.145508 
	C180.253860,360.366760 179.678116,362.151306 178.931732,363.209015 
	C177.624252,361.072571 176.316772,358.936127 174.976608,356.454285 
z"/>
<path fill="#82B358" opacity="1.000000" stroke="none" 
	d="
M216.420547,277.081757 
	C213.837326,272.347382 211.816422,267.582245 209.438736,263.002411 
	C206.805740,257.930786 203.846451,253.028595 201.022827,247.703629 
	C201.458664,247.225494 201.900925,247.096344 202.816681,247.223053 
	C203.855194,247.254913 204.420242,247.030930 204.985291,246.806931 
	C206.702057,246.526718 208.418808,246.246490 210.570602,246.051117 
	C212.147018,248.400452 213.099075,250.786880 214.464615,252.907013 
	C218.899551,259.792664 225.611908,265.434601 226.066437,274.906921 
	C225.262390,275.562347 224.434158,275.780273 223.093475,275.710266 
	C221.718445,275.778687 220.855896,276.135071 219.993332,276.491425 
	C218.937393,276.705170 217.881470,276.918945 216.420547,277.081757 
z"/>
<path fill="#037FC4" opacity="1.000000" stroke="none" 
	d="
M113.851143,231.984055 
	C108.019012,231.679977 102.188759,231.330261 96.353996,231.090134 
	C93.210121,230.960770 90.058510,231.019043 86.446915,230.674835 
	C85.751534,229.604721 85.519630,228.852432 85.287720,228.100128 
	C85.598610,225.957077 85.909492,223.814041 86.723190,221.219452 
	C87.492516,219.839828 87.759033,218.911743 88.422180,217.996048 
	C97.107018,219.339020 105.395210,220.669601 113.830154,222.302170 
	C114.265388,224.717972 114.553886,226.831787 114.842377,228.945587 
	C114.843796,229.695419 114.845207,230.445267 114.558441,231.552429 
	C114.270264,231.909775 113.851143,231.984055 113.851143,231.984055 
z"/>
<path fill="#E8B444" opacity="1.000000" stroke="none" 
	d="
M179.019470,363.525635 
	C179.678116,362.151306 180.253860,360.366760 181.196548,360.145508 
	C194.203384,357.092560 207.253418,354.220551 220.318039,351.421753 
	C221.500153,351.168549 222.856003,351.726227 224.497681,351.957764 
	C225.910339,353.444336 226.956467,354.880432 228.029678,356.649475 
	C222.283249,358.190674 216.500214,359.355438 210.738647,360.618073 
	C203.475876,362.209747 196.236847,363.909698 188.974167,365.501862 
	C186.667450,366.007538 184.317902,366.318054 181.891357,367.116882 
	C180.898911,366.291351 180.003067,365.066833 179.019470,363.525635 
z"/>
<path fill="#335198" opacity="1.000000" stroke="none" 
	d="
M39.180870,154.322189 
	C46.372875,156.979355 53.731361,157.842773 61.654034,156.899658 
	C66.171112,156.361938 70.975090,158.234299 76.080338,159.107086 
	C70.906754,163.457169 65.302727,167.721603 58.547298,172.862183 
	C52.525391,167.179596 45.884548,160.912949 39.180870,154.322189 
z"/>
<path fill="#0576BC" opacity="1.000000" stroke="none" 
	d="
M113.683411,222.000168 
	C105.395210,220.669601 97.107018,219.339020 88.338593,217.805115 
	C87.720360,217.343216 87.512329,217.167603 87.234276,217.074951 
	C87.345039,215.306595 87.455803,213.538254 88.015671,211.205307 
	C88.536102,209.867172 88.607437,209.093643 88.678772,208.320099 
	C88.678772,208.320099 88.503990,208.190994 88.825974,208.024170 
	C89.431717,207.569946 89.715477,207.282532 90.414215,207.005585 
	C98.773842,207.734741 106.592796,211.454361 114.711548,208.016373 
	C114.842865,210.733551 114.974182,213.450729 114.785301,216.867218 
	C114.204544,219.044403 113.943985,220.522278 113.683411,222.000168 
z"/>
<path fill="#C84774" opacity="1.000000" stroke="none" 
	d="
M193.042923,285.621155 
	C185.837479,287.656982 178.597382,289.132385 171.475876,291.048523 
	C165.171738,292.744720 158.999573,294.931396 152.316315,296.989014 
	C151.863480,297.076538 151.657501,297.111115 151.734497,296.723267 
	C151.141235,293.224854 150.470963,290.114288 150.186920,287.031067 
	C151.685181,287.213715 152.858932,287.681946 153.899857,287.476654 
	C166.264069,285.038330 178.608475,282.499664 190.958084,279.987305 
	C191.461029,280.886444 191.963974,281.785614 192.715927,282.865540 
	C192.996567,283.781738 193.028198,284.517090 193.042923,285.621155 
z"/>
<path fill="#10A1E2" opacity="1.000000" stroke="none" 
	d="
M105.901329,282.977295 
	C103.206573,282.465820 100.531876,281.737976 97.813072,281.485748 
	C91.212997,280.873474 84.595406,280.433167 77.978462,280.028442 
	C75.621941,279.884308 73.159531,280.177704 73.019814,276.049194 
	C73.661667,274.209045 74.284744,273.102539 74.907822,271.996002 
	C82.220673,270.732635 89.408203,270.087677 96.748589,272.568268 
	C99.874229,273.624512 103.599571,272.906097 107.485275,273.322754 
	C107.816338,275.063629 107.714523,276.475952 107.612701,277.888245 
	C107.576233,278.358795 107.539764,278.829315 107.070602,279.753082 
	C106.392380,281.129974 106.146851,282.053619 105.901329,282.977295 
z"/>
<path fill="#335198" opacity="1.000000" stroke="none" 
	d="
M88.705688,161.314392 
	C92.667374,160.954071 96.543869,161.193878 100.377640,160.891708 
	C101.642670,160.791992 102.797401,159.292755 104.080215,158.032013 
	C106.356133,163.828934 108.554405,170.027313 110.299210,176.611969 
	C104.490768,176.460739 99.141632,175.838654 93.775085,175.469696 
	C92.889259,175.408768 91.927193,176.456619 90.747681,176.990967 
	C90.326569,176.992035 90.158127,176.994202 89.989685,176.996384 
	C89.527740,171.898712 89.065796,166.801025 88.705688,161.314392 
z"/>
<path fill="#46AEE8" opacity="1.000000" stroke="none" 
	d="
M99.086945,306.024780 
	C98.580925,307.864532 98.074898,309.704254 97.304344,311.772919 
	C88.718597,311.337006 80.406944,310.432343 72.072472,310.099976 
	C67.304878,309.909821 62.500164,310.650787 57.268707,310.960846 
	C57.441669,309.480042 58.058086,308.010925 59.176296,306.244873 
	C59.794800,305.301239 59.911507,304.654510 60.028206,304.007751 
	C60.299164,303.346893 60.570126,302.686066 61.594173,301.977936 
	C71.049240,302.649597 79.761131,303.269135 88.448425,304.135345 
	C92.021866,304.491669 95.542358,305.378998 99.086945,306.024780 
z"/>
<path fill="#1FA2C8" opacity="1.000000" stroke="none" 
	d="
M145.007935,302.013397 
	C144.624222,300.805084 144.622208,299.035461 143.797958,298.474915 
	C135.196823,292.625885 132.816422,282.472656 127.038071,274.048523 
	C127.017082,273.052490 127.025139,272.684906 127.033203,272.317322 
	C127.309418,272.118408 127.585625,271.919495 128.549667,271.782227 
	C130.821320,271.557892 132.405136,271.271912 132.564514,271.243134 
	C139.046661,274.698547 138.487762,283.718201 146.005386,284.575806 
	C147.802277,288.560944 149.729889,292.836029 151.657501,297.111115 
	C151.657501,297.111115 151.863480,297.076538 151.955811,297.027679 
	C151.998917,297.422699 151.949692,297.866547 151.621155,298.782837 
	C150.549042,300.021027 149.756226,300.786774 148.963409,301.552490 
	C148.675079,301.767639 148.386749,301.982788 147.404144,302.151306 
	C146.142578,302.074249 145.575256,302.043823 145.007935,302.013397 
z"/>
<path fill="#126DB3" opacity="1.000000" stroke="none" 
	d="
M114.809738,207.600189 
	C106.592796,211.454361 98.773842,207.734741 90.412376,206.584366 
	C89.754799,203.798569 89.514046,201.444458 89.273285,199.090332 
	C89.251549,197.671310 89.229813,196.252274 89.728500,194.441452 
	C92.912354,194.717239 95.707794,195.069351 98.212029,196.117355 
	C103.605843,198.374619 112.028717,193.618088 114.352531,203.000854 
	C114.537666,204.395233 114.722801,205.789612 114.809738,207.600189 
z"/>
<path fill="#2568AC" opacity="1.000000" stroke="none" 
	d="
M114.487114,202.584229 
	C112.028717,193.618088 103.605843,198.374619 98.212029,196.117355 
	C95.707794,195.069351 92.912354,194.717239 89.892159,194.045029 
	C89.571709,188.602005 89.608017,183.163620 89.817001,177.360809 
	C90.158127,176.994202 90.326569,176.992035 90.746628,177.434723 
	C91.663422,180.452393 89.102165,184.563690 93.688713,185.255753 
	C99.936302,186.198471 106.288666,186.446838 112.596100,186.992935 
	C113.271294,192.051163 113.946495,197.109375 114.487114,202.584229 
z"/>
<path fill="#39ABE6" opacity="1.000000" stroke="none" 
	d="
M99.342926,305.786682 
	C95.542358,305.378998 92.021866,304.491669 88.448425,304.135345 
	C79.761131,303.269135 71.049240,302.649597 61.861465,301.894379 
	C62.212990,299.672272 63.050308,297.486450 64.582947,295.137482 
	C77.342758,298.271576 89.694855,298.087006 102.038010,298.010712 
	C101.224976,300.523346 100.411949,303.035980 99.342926,305.786682 
z"/>
<path fill="#0F7EC2" opacity="1.000000" stroke="none" 
	d="
M89.194397,331.414337 
	C90.180000,328.620422 91.106087,326.197632 92.110382,323.408447 
	C92.947594,322.141235 93.706589,321.240356 94.700546,320.149475 
	C96.916649,324.653290 98.897781,329.347198 100.916389,334.388245 
	C96.408264,339.340363 91.862656,343.945312 86.714966,348.794342 
	C84.673347,348.955261 83.019394,353.277191 81.792358,348.828125 
	C82.207283,347.143585 82.622208,345.459045 83.108215,343.405151 
	C85.164482,339.285706 87.149681,335.535553 89.194397,331.414337 
z"/>
<path fill="#2EA8E4" opacity="1.000000" stroke="none" 
	d="
M102.278091,298.007904 
	C89.694855,298.087006 77.342758,298.271576 64.830528,294.909241 
	C65.321815,292.321686 66.260834,289.799286 67.520691,287.106445 
	C69.204102,290.688568 72.103813,290.971252 75.661285,291.107239 
	C84.511047,291.445557 93.339767,292.334717 102.615814,293.008118 
	C103.035423,294.395966 103.016144,295.778442 102.997498,297.575562 
	C102.998123,297.990204 102.518166,298.005096 102.278091,298.007904 
z"/>
<path fill="#A5D3F3" opacity="1.000000" stroke="none" 
	d="
M40.122364,368.311279 
	C44.453182,368.884094 48.933357,369.686218 53.375416,370.661865 
	C58.929714,371.881744 64.321732,371.900574 69.866608,369.125610 
	C67.412933,373.589264 64.763565,378.171906 61.523960,382.290253 
	C60.774094,383.243530 57.358734,383.428131 56.278595,382.570404 
	C50.738052,378.170410 45.559704,373.314331 40.122364,368.311279 
z"/>
<path fill="#3BA3BD" opacity="1.000000" stroke="none" 
	d="
M151.734497,296.723267 
	C149.729889,292.836029 147.802277,288.560944 146.005386,284.575806 
	C138.487762,283.718201 139.046661,274.698547 132.564514,271.243134 
	C132.405136,271.271912 130.821320,271.557892 128.809723,271.783112 
	C132.196732,269.656097 136.028137,267.619659 139.816681,265.506378 
	C141.028229,264.830536 142.126221,263.951141 143.459930,262.966797 
	C144.393280,265.245026 145.142853,267.721344 145.946655,270.582458 
	C146.063065,272.086578 146.125214,273.205872 146.286163,274.935913 
	C146.437576,275.862823 146.602448,276.101593 146.879608,276.262939 
	C146.906845,276.663544 146.934082,277.064117 147.074799,278.010620 
	C147.414108,278.829559 147.639908,279.102631 147.865723,279.375702 
	C148.057587,280.793365 148.249451,282.210999 148.636200,284.220612 
	C149.154266,285.542938 149.477463,286.273315 149.800674,287.003693 
	C150.470963,290.114288 151.141235,293.224854 151.734497,296.723267 
z"/>
<path fill="#275AA1" opacity="1.000000" stroke="none" 
	d="
M112.684654,186.722443 
	C106.288666,186.446838 99.936302,186.198471 93.688713,185.255753 
	C89.102165,184.563690 91.663422,180.452393 90.999298,177.435822 
	C91.927193,176.456619 92.889259,175.408768 93.775085,175.469696 
	C99.141632,175.838654 104.490768,176.460739 110.257011,176.999176 
	C111.007034,178.134811 111.345772,179.269516 111.457809,181.018280 
	C111.546181,182.736771 111.861259,183.841202 112.176338,184.945633 
	C112.375290,185.447739 112.574249,185.949829 112.684654,186.722443 
z"/>
<path fill="#C84774" opacity="1.000000" stroke="none" 
	d="
M128.655106,165.312866 
	C129.505829,166.764236 130.590363,168.497833 130.836990,170.343399 
	C131.984940,178.934418 132.901123,187.556396 133.906494,196.586304 
	C135.610504,208.714066 137.308273,220.422852 139.046570,232.559296 
	C140.764221,241.995178 142.441315,251.003372 144.072723,260.415436 
	C143.355728,259.394989 142.296005,258.029449 142.070450,256.537720 
	C137.490601,226.249374 133.006332,195.946579 128.655106,165.312866 
z"/>
<path fill="#39ABE6" opacity="1.000000" stroke="none" 
	d="
M113.848434,232.390289 
	C113.851143,231.984055 114.270264,231.909775 114.482758,231.920502 
	C113.190620,244.089005 111.685997,256.246796 109.896698,268.652832 
	C109.765236,265.564484 109.918442,262.227905 110.086670,258.463562 
	C110.755852,253.660934 111.410011,249.286087 112.063095,244.461823 
	C112.656578,240.273773 113.251144,236.535156 113.848434,232.390289 
z"/>
<path fill="#C84774" opacity="1.000000" stroke="none" 
	d="
M156.435822,82.749161 
	C155.851410,81.994476 155.462387,80.836327 155.051254,79.342537 
	C154.660004,69.312225 154.290848,59.617546 153.854401,49.457527 
	C153.806396,48.516342 153.825699,48.040497 154.038147,47.216698 
	C154.231277,46.868740 154.702576,47.009613 154.702576,47.009613 
	C155.101944,53.370590 155.538437,59.729519 155.889297,66.093170 
	C156.187836,71.507858 156.387695,76.927971 156.435822,82.749161 
z"/>
<path fill="#3BA3BD" opacity="1.000000" stroke="none" 
	d="
M81.503891,348.922119 
	C83.019394,353.277191 84.673347,348.955261 86.444153,349.000854 
	C83.081070,352.915070 79.386726,356.866852 75.357353,360.910126 
	C76.349083,357.958496 77.675835,354.915375 79.063004,351.530823 
	C79.820755,350.464935 80.518082,349.740509 81.503891,348.922119 
z"/>
<path fill="#C92C78" opacity="1.000000" stroke="none" 
	d="
M159.011368,128.373779 
	C159.077637,127.714310 159.232437,127.454697 159.662689,127.138550 
	C161.158295,136.775513 162.447708,146.510300 163.645721,156.666565 
	C163.554352,157.088043 163.062622,157.096954 163.062622,157.096954 
	C163.062622,157.096954 162.577652,157.015289 162.334381,156.993805 
	C161.070969,147.559006 160.050812,138.145660 159.011368,128.373779 
z"/>
<path fill="#C92C78" opacity="1.000000" stroke="none" 
	d="
M167.075226,191.334167 
	C166.439041,185.210617 165.832001,179.406128 165.453033,173.345276 
	C167.015640,180.150574 168.350159,187.212234 169.578369,194.678589 
	C168.682831,193.939911 167.893600,192.796555 167.075226,191.334167 
z"/>
<path fill="#C83870" opacity="1.000000" stroke="none" 
	d="
M126.490143,141.319885 
	C127.400841,144.253632 128.396408,147.591507 128.859818,151.001694 
	C129.269562,154.016922 129.086563,157.112701 129.088715,160.571716 
	C128.241211,156.698776 127.388382,152.439529 126.734283,148.149994 
	C126.413689,146.047516 126.462173,143.888748 126.490143,141.319885 
z"/>
<path fill="#C50E41" opacity="1.000000" stroke="none" 
	d="
M123.061714,49.518593 
	C123.054436,52.025585 123.021217,54.065903 122.742844,56.544510 
	C122.497688,56.982796 122.045570,57.008503 122.045570,57.008503 
	C122.000443,44.981598 121.955315,32.954693 122.242920,20.510197 
	C122.575661,20.092606 122.983688,20.140451 122.983688,20.140451 
	C123.001045,29.777609 123.018410,39.414764 123.061714,49.518593 
z"/>
<path fill="#39ABE6" opacity="1.000000" stroke="none" 
	d="
M74.927383,271.591461 
	C74.284744,273.102539 73.661667,274.209045 73.000351,275.641296 
	C72.594193,275.987885 72.226257,276.008728 71.581833,276.033875 
	C73.227875,270.334900 75.150414,264.631592 77.344849,258.701599 
	C76.726807,262.712219 75.836868,266.949554 74.927383,271.591461 
z"/>
<path fill="#C83870" opacity="1.000000" stroke="none" 
	d="
M123.246544,19.912119 
	C122.983688,20.140451 122.575661,20.092606 122.373093,20.058910 
	C124.768936,13.618006 131.041779,13.304031 136.738419,11.572479 
	C134.793762,12.780588 132.404480,13.710484 130.227295,14.998826 
	C127.884331,16.385292 125.740257,18.107862 123.246544,19.912119 
z"/>
<path fill="#C83870" opacity="1.000000" stroke="none" 
	d="
M153.805573,11.653101 
	C149.083694,11.915238 144.372269,11.823356 139.381622,11.481422 
	C144.013367,9.858043 148.926437,8.027501 153.805573,11.653101 
z"/>
<path fill="#C83870" opacity="1.000000" stroke="none" 
	d="
M123.445953,96.322044 
	C124.089066,98.025383 124.538551,100.084671 125.006454,102.574127 
	C124.963264,105.432266 124.901657,107.860237 124.601540,110.589966 
	C123.992798,106.153809 123.622566,101.415901 123.445953,96.322044 
z"/>
<path fill="#C83870" opacity="1.000000" stroke="none" 
	d="
M121.876968,57.368835 
	C122.045570,57.008503 122.497688,56.982796 122.723557,56.980770 
	C122.904823,61.408077 122.860214,65.837410 122.567978,70.581970 
	C122.116371,66.507858 121.912376,62.118515 121.876968,57.368835 
z"/>
<path fill="#C92C78" opacity="1.000000" stroke="none" 
	d="
M165.509659,170.690552 
	C164.673676,167.276215 163.974838,163.457932 163.531067,159.352448 
	C164.406342,162.805695 165.026566,166.546143 165.509659,170.690552 
z"/>
<path fill="#39ABE6" opacity="1.000000" stroke="none" 
	d="
M113.830154,222.302170 
	C113.943985,220.522278 114.204544,219.044403 114.732964,217.320465 
	C115.083160,220.807785 115.165489,224.541168 115.045097,228.610077 
	C114.553886,226.831787 114.265388,224.717972 113.830154,222.302170 
z"/>
<path fill="#C83870" opacity="1.000000" stroke="none" 
	d="
M125.473602,129.335236 
	C126.072609,130.050232 126.518753,131.190201 126.988281,132.673889 
	C126.955589,134.792480 126.899521,136.567337 126.602875,138.625122 
	C126.015099,135.858749 125.667923,132.809479 125.473602,129.335236 
z"/>
<path fill="#C83870" opacity="1.000000" stroke="none" 
	d="
M122.857155,85.358727 
	C123.313530,87.891228 123.601677,90.757751 123.713631,94.077934 
	C123.254601,91.585312 122.971764,88.639030 122.857155,85.358727 
z"/>
<path fill="#2568AC" opacity="1.000000" stroke="none" 
	d="
M89.079407,199.403473 
	C89.514046,201.444458 89.754799,203.798569 89.997391,206.573914 
	C89.715477,207.282532 89.431717,207.569946 88.841667,207.916656 
	C88.652092,205.222855 88.768806,202.469727 89.079407,199.403473 
z"/>
<path fill="#C30D29" opacity="1.000000" stroke="none" 
	d="
M154.752411,46.589291 
	C154.702576,47.009613 154.231277,46.868740 153.983902,46.862549 
	C153.653854,44.393982 153.571167,41.931610 153.786835,39.215569 
	C154.324219,41.364258 154.563232,43.766613 154.752411,46.589291 
z"/>
<path fill="#C83870" opacity="1.000000" stroke="none" 
	d="
M124.714386,119.312195 
	C125.209641,121.403725 125.551872,123.833221 125.669556,126.561707 
	C125.150452,124.457184 124.855904,122.053665 124.714386,119.312195 
z"/>
<path fill="#EDC02D" opacity="1.000000" stroke="none" 
	d="
M225.259995,392.261963 
	C227.104446,391.486542 229.233810,390.869019 231.621338,390.471008 
	C229.767975,391.266998 227.656433,391.843445 225.259995,392.261963 
z"/>
<path fill="#EDC02D" opacity="1.000000" stroke="none" 
	d="
M237.340485,390.268738 
	C239.123093,389.516907 241.249115,388.895142 243.630142,388.495514 
	C241.818069,389.278046 239.750977,389.838440 237.340485,390.268738 
z"/>
<path fill="#335198" opacity="1.000000" stroke="none" 
	d="
M82.412827,157.464050 
	C83.945709,157.330215 85.913948,157.235458 87.968506,157.486298 
	C86.319275,157.722290 84.583725,157.612686 82.412827,157.464050 
z"/>
<path fill="#EDC02D" opacity="1.000000" stroke="none" 
	d="
M213.385559,393.843506 
	C214.773666,393.245575 216.551620,392.746002 218.600784,392.466187 
	C217.173126,393.104553 215.474274,393.523193 213.385559,393.843506 
z"/>
<path fill="#EDC02D" opacity="1.000000" stroke="none" 
	d="
M248.319763,388.336700 
	C248.978485,387.301697 249.970032,386.397186 251.018509,385.174683 
	C251.592926,385.574890 252.110397,386.293121 252.627884,387.011353 
	C251.302780,387.496643 249.977676,387.981934 248.319763,388.336700 
z"/>
<path fill="#39ABE6" opacity="1.000000" stroke="none" 
	d="
M107.854759,277.697021 
	C107.714523,276.475952 107.816338,275.063629 107.944382,273.316986 
	C107.970604,272.982635 107.989975,272.993011 108.242928,272.994751 
	C108.495880,272.996490 108.990273,273.002319 108.990273,273.002319 
	C108.692451,274.503479 108.394630,276.004608 107.854759,277.697021 
z"/>
<path fill="#39ABE6" opacity="1.000000" stroke="none" 
	d="
M106.136307,283.087891 
	C106.146851,282.053619 106.392380,281.129974 106.889038,280.061646 
	C107.546776,280.609344 107.953392,281.301697 108.719650,282.190887 
	C108.582047,282.903870 108.084808,283.420044 107.294243,283.968719 
	C106.791031,283.733643 106.581161,283.466034 106.136307,283.087891 
z"/>
<path fill="#C84774" opacity="1.000000" stroke="none" 
	d="
M156.082275,96.871544 
	C156.110046,94.118675 156.137817,91.365814 156.407501,88.301895 
	C156.932175,90.651573 157.214951,93.312309 157.083099,96.442749 
	C156.473099,96.898819 156.277695,96.885178 156.082275,96.871544 
z"/>
<path fill="#39ABE6" opacity="1.000000" stroke="none" 
	d="
M121.614288,274.964478 
	C121.088333,275.804077 120.212021,276.641113 119.153488,277.729431 
	C118.479141,277.980774 117.987022,277.980835 117.130341,277.917908 
	C118.265175,276.890564 119.764557,275.926239 121.614288,274.964478 
z"/>
<path fill="#3BA3BD" opacity="1.000000" stroke="none" 
	d="
M149.301620,301.576630 
	C149.756226,300.786774 150.549042,300.021027 151.604080,299.118896 
	C152.100174,299.216553 152.334030,299.450562 152.612701,299.811523 
	C151.651596,300.492554 150.645706,301.046661 149.301620,301.576630 
z"/>
<path fill="#EDC02D" opacity="1.000000" stroke="none" 
	d="
M207.269531,394.079285 
	C208.220032,393.708191 209.378464,393.562012 210.743317,393.658081 
	C209.792297,394.034943 208.634872,394.169556 207.269531,394.079285 
z"/>
<path fill="#2568AC" opacity="1.000000" stroke="none" 
	d="
M87.022919,217.342224 
	C87.512329,217.167603 87.720360,217.343216 87.941956,217.792725 
	C87.759033,218.911743 87.492516,219.839828 86.949234,220.871307 
	C86.718834,219.852936 86.765198,218.731216 87.022919,217.342224 
z"/>
<path fill="#15A1D4" opacity="1.000000" stroke="none" 
	d="
M118.253235,320.746521 
	C117.947189,320.366333 117.966652,319.976410 118.000229,319.293762 
	C118.925392,318.699829 119.836441,318.398529 121.113235,318.141907 
	C120.512230,319.036652 119.545486,319.886719 118.253235,320.746521 
z"/>
<path fill="#C92C78" opacity="1.000000" stroke="none" 
	d="
M159.865219,124.725174 
	C159.399933,124.077362 159.055740,123.118622 159.041107,122.051315 
	C159.575851,122.766586 159.781082,123.590424 159.865219,124.725174 
z"/>
<path fill="#79B269" opacity="1.000000" stroke="none" 
	d="
M220.302597,276.601257 
	C220.855896,276.135071 221.718445,275.778687 222.765518,275.646057 
	C222.170654,276.150208 221.391251,276.430634 220.302597,276.601257 
z"/>
<path fill="#2568AC" opacity="1.000000" stroke="none" 
	d="
M85.087463,228.336472 
	C85.519630,228.852432 85.751534,229.604721 85.983414,230.667175 
	C85.701927,230.989899 85.420334,230.997833 84.928177,230.998184 
	C84.774239,230.187759 84.830719,229.380280 85.087463,228.336472 
z"/>
<path fill="#3BA3BD" opacity="1.000000" stroke="none" 
	d="
M144.765717,302.164734 
	C145.575256,302.043823 146.142578,302.074249 147.132141,302.181580 
	C146.590439,302.875214 145.626495,303.491913 144.324127,304.001770 
	C144.164963,303.368683 144.344223,302.842346 144.765717,302.164734 
z"/>
<path fill="#C92C78" opacity="1.000000" stroke="none" 
	d="
M159.031342,118.573944 
	C158.677185,117.401154 158.416443,115.835281 158.308487,113.859047 
	C158.682434,115.026077 158.903580,116.603477 159.031342,118.573944 
z"/>
<path fill="#335198" opacity="1.000000" stroke="none" 
	d="
M35.929932,149.365479 
	C36.587658,149.871826 37.242188,150.705521 37.850388,151.881622 
	C37.178280,151.380310 36.552505,150.536575 35.929932,149.365479 
z"/>
<path fill="#335198" opacity="1.000000" stroke="none" 
	d="
M35.578125,144.640564 
	C35.750664,145.180496 35.693485,145.830582 35.394917,146.708527 
	C35.218483,146.207840 35.283443,145.479279 35.578125,144.640564 
z"/>
<path fill="#73BDED" opacity="1.000000" stroke="none" 
	d="
M51.830772,320.190948 
	C51.926891,320.669495 51.772034,321.308685 51.332565,321.976685 
	C51.225239,321.454163 51.402515,320.902893 51.830772,320.190948 
z"/>
<path fill="#39ABE6" opacity="1.000000" stroke="none" 
	d="
M125.047211,274.078674 
	C124.443779,274.343567 123.840347,274.608459 122.897141,274.792358 
	C123.175018,274.208038 123.792679,273.704773 124.720459,273.417847 
	C125.030586,273.634186 125.047218,274.078674 125.047211,274.078674 
z"/>
<path fill="#15A1D4" opacity="1.000000" stroke="none" 
	d="
M122.308189,317.878784 
	C122.561928,317.296356 123.131493,316.697784 124.053329,316.127808 
	C123.811745,316.725159 123.217880,317.293915 122.308189,317.878784 
z"/>
<path fill="#15A1D4" opacity="1.000000" stroke="none" 
	d="
M125.292557,315.804565 
	C125.558495,315.245728 126.133408,314.671417 127.054626,314.129974 
	C126.801125,314.704956 126.201324,315.247040 125.292557,315.804565 
z"/>
<path fill="#15A1D4" opacity="1.000000" stroke="none" 
	d="
M128.310165,313.860962 
	C128.577347,313.283203 129.160599,312.693207 130.099380,312.137817 
	C129.845367,312.731201 129.235809,313.289948 128.310165,313.860962 
z"/>
<path fill="#3BA3BD" opacity="1.000000" stroke="none" 
	d="
M125.370850,274.048767 
	C125.047218,274.078674 125.030586,273.634186 125.029671,273.411987 
	C125.503685,272.882141 125.978622,272.574493 126.743378,272.292084 
	C127.025139,272.684906 127.017082,273.052490 127.001717,273.695740 
	C126.561104,273.987244 126.127785,274.003021 125.370850,274.048767 
z"/>
<path fill="#57B3E9" opacity="1.000000" stroke="none" 
	d="
M59.789345,304.181458 
	C59.911507,304.654510 59.794800,305.301239 59.396317,305.979919 
	C59.259853,305.459595 59.405163,304.907349 59.789345,304.181458 
z"/>
<path fill="#73AD7A" opacity="1.000000" stroke="none" 
	d="
M210.267242,278.602448 
	C210.549133,278.178619 211.103500,277.835449 211.805664,277.695282 
	C211.482208,278.159882 211.010971,278.421478 210.267242,278.602448 
z"/>
<path fill="#39ABE6" opacity="1.000000" stroke="none" 
	d="
M111.819183,280.478027 
	C111.552048,281.009949 110.991310,281.490082 110.127747,281.933838 
	C110.391808,281.407074 110.958694,280.916626 111.819183,280.478027 
z"/>
<path fill="#79B269" opacity="1.000000" stroke="none" 
	d="
M204.748383,246.647614 
	C204.420242,247.030930 203.855194,247.254913 203.161636,247.282166 
	C203.525909,246.886398 204.018692,246.687363 204.748383,246.647614 
z"/>
<path fill="#2568AC" opacity="1.000000" stroke="none" 
	d="
M88.437927,208.508636 
	C88.607437,209.093643 88.536102,209.867172 88.219170,210.811188 
	C88.048073,210.220169 88.122574,209.458679 88.437927,208.508636 
z"/>
<path fill="#335198" opacity="1.000000" stroke="none" 
	d="
M112.225502,184.553741 
	C111.861259,183.841202 111.546181,182.736771 111.415001,181.370514 
	C111.824158,182.126389 112.049416,183.144119 112.225502,184.553741 
z"/>
<path fill="#343D8A" opacity="1.000000" stroke="none" 
	d="
M102.307335,152.588287 
	C101.924889,152.440735 101.516609,151.973679 101.117073,151.166351 
	C101.511040,151.306976 101.896271,151.787872 102.307335,152.588287 
z"/>
<path fill="#C50E41" opacity="1.000000" stroke="none" 
	d="
M156.074615,97.200653 
	C156.277695,96.885178 156.473099,96.898819 156.960236,96.873421 
	C157.304184,97.327881 157.356384,97.821365 157.279251,98.665779 
	C156.788925,98.521049 156.427933,98.025406 156.074615,97.200653 
z"/>
<path fill="#E8B444" opacity="1.000000" stroke="none" 
	d="
M230.042206,359.701813 
	C229.779663,359.739349 229.492798,359.472382 229.164520,358.903595 
	C229.421356,358.866943 229.719620,359.132141 230.042206,359.701813 
z"/>
<path fill="#335198" opacity="1.000000" stroke="none" 
	d="
M37.809303,152.440491 
	C38.085957,152.386414 38.415352,152.649796 38.782990,153.241837 
	C38.501507,153.299652 38.181778,153.028809 37.809303,152.440491 
z"/>
<path fill="#D7826C" opacity="1.000000" stroke="none" 
	d="
M159.065460,319.323761 
	C159.296738,319.322723 159.551224,319.627869 159.834259,320.242126 
	C159.604782,320.244141 159.346741,319.937042 159.065460,319.323761 
z"/>
<path fill="#39ABE6" opacity="1.000000" stroke="none" 
	d="
M115.778442,278.237335 
	C115.937630,278.596191 115.727936,278.821045 115.159042,278.943054 
	C115.123085,278.706451 115.326332,278.460846 115.778442,278.237335 
z"/>
<path fill="#C83870" opacity="1.000000" stroke="none" 
	d="
M123.687782,83.017700 
	C123.830948,83.336983 123.661674,83.593384 123.202110,83.886490 
	C122.910088,83.816063 122.835075,83.660553 122.865204,83.268608 
	C122.970345,83.032181 123.448639,83.003220 123.687782,83.017700 
z"/>
<path fill="#3BA3BD" opacity="1.000000" stroke="none" 
	d="
M105.401596,331.155426 
	C105.330902,330.903473 105.537605,330.577911 106.045776,330.217590 
	C106.124496,330.482483 105.901741,330.782166 105.401596,331.155426 
z"/>
<path fill="#23A5E4" opacity="1.000000" stroke="none" 
	d="
M109.079407,272.756744 
	C108.990273,273.002319 108.495880,272.996490 108.248695,272.998840 
	C108.194275,272.731476 108.387039,272.461731 108.814056,272.097290 
	C109.088379,272.172150 109.128456,272.341644 109.079407,272.756744 
z"/>
<path fill="#343D8A" opacity="1.000000" stroke="none" 
	d="
M104.058228,156.653137 
	C103.751961,156.654846 103.487793,156.303345 103.218872,155.609314 
	C103.509514,155.611160 103.804916,155.955551 104.058228,156.653137 
z"/>
<path fill="#335198" opacity="1.000000" stroke="none" 
	d="
M77.335480,159.035645 
	C77.340042,158.762131 77.677391,158.496872 78.350258,158.243134 
	C78.346603,158.517731 78.007439,158.780823 77.335480,159.035645 
z"/>
<path fill="#C92C78" opacity="1.000000" stroke="none" 
	d="
M158.507477,112.602585 
	C158.256714,112.559990 158.053635,112.354546 158.115936,112.148705 
	C158.381287,112.148300 158.555176,112.439735 158.507477,112.602585 
z"/>
<path fill="#15A1D4" opacity="1.000000" stroke="none" 
	d="
M115.281509,322.964417 
	C115.229309,322.737335 115.444916,322.465759 115.921860,322.138977 
	C115.971909,322.362488 115.760612,322.641205 115.281509,322.964417 
z"/>
<path fill="#D47371" opacity="1.000000" stroke="none" 
	d="
M198.026337,298.663635 
	C197.780762,298.673737 197.500244,298.367035 197.193054,297.736176 
	C197.441376,297.723633 197.716370,298.035187 198.026337,298.663635 
z"/>
<path fill="#15A1D4" opacity="1.000000" stroke="none" 
	d="
M110.277283,326.915161 
	C110.108391,326.594421 110.312576,326.341339 110.873322,326.122498 
	C110.923660,326.340820 110.730476,326.616180 110.277283,326.915161 
z"/>
<path fill="#FFFEFE" opacity="1.000000" stroke="none" 
	d="
M594.566406,230.837463 
	C589.104919,197.317596 570.818298,174.821030 538.714233,163.741440 
	C537.776184,163.417709 536.863342,163.021133 535.704773,162.343475 
	C539.266724,130.803024 566.740051,107.686790 598.788208,108.752800 
	C629.583496,109.777130 655.488281,135.021606 657.238647,165.713287 
	C659.069397,197.814331 636.784119,225.589111 605.443176,230.155151 
	C602.001831,230.656525 598.487915,230.659592 594.566406,230.837463 
z"/>
<path fill="#FEFEFD" opacity="1.000000" stroke="none" 
	d="
M513.687744,173.750549 
	C514.431213,175.559555 514.858215,177.683197 515.609497,180.046555 
	C520.915100,213.068756 539.203247,234.970001 570.118347,246.542603 
	C571.672852,247.124512 573.240723,247.670639 575.101318,248.446106 
	C573.231750,255.074081 571.672119,261.778412 568.788330,267.854218 
	C556.791382,293.130157 529.999268,306.197754 501.576324,301.094421 
	C476.473511,296.587189 455.453552,274.046814 452.943573,248.487427 
	C485.769226,239.483353 510.025513,210.735107 512.952820,177.015625 
	C513.038635,176.027481 513.229309,175.048431 513.687744,173.750549 
z"/>
<path fill="#FBFBF7" opacity="1.000000" stroke="none" 
	d="
M537.619263,185.415405 
	C555.959778,192.535233 566.596619,206.763672 572.378906,225.651505 
	C554.196411,218.404938 542.798645,204.826157 537.619263,185.415405 
z"/>
<path fill="#FEFEFE" opacity="1.000000" stroke="none" 
	d="
M329.957764,162.493103 
	C295.884399,172.838837 276.253082,195.589569 269.869049,230.636078 
	C234.570801,230.800186 209.482071,203.574417 208.038437,173.112427 
	C206.540619,141.506866 228.365326,114.703743 259.664978,109.304031 
	C289.120392,104.222488 318.582397,122.813316 327.806946,152.388977 
	C328.791779,155.546494 329.284973,158.857315 329.957764,162.493103 
z"/>
<path fill="#FEFEFE" opacity="1.000000" stroke="none" 
	d="
M349.749939,180.756897 
	C351.178864,184.715866 352.115448,189.063675 353.509705,193.259399 
	C362.962555,221.705536 382.250092,239.983994 411.228607,248.723206 
	C407.039856,280.145996 381.285217,302.452515 350.073547,302.207245 
	C319.250183,301.965027 293.608765,279.319550 289.774109,248.502686 
	C323.428894,237.972412 343.000488,215.356003 349.749939,180.756897 
z"/>
<path fill="#FBFBF7" opacity="1.000000" stroke="none" 
	d="
M292.343964,226.409607 
	C295.316071,208.893784 305.837982,196.581100 320.810791,187.608139 
	C322.781830,186.426910 324.994019,185.648087 327.456787,184.576553 
	C322.632141,203.881165 311.303772,218.140640 292.343964,226.409607 
z"/>
<path fill="#FEFEFD" opacity="1.000000" stroke="none" 
	d="
M432.318054,233.918884 
	C431.401367,233.222885 430.827637,232.314606 430.048218,231.139038 
	C427.564392,204.657700 414.652954,185.000397 392.395874,171.551956 
	C386.232605,167.827881 379.099548,165.708771 372.106506,162.679718 
	C373.968475,151.243652 377.745941,140.624207 385.238098,131.751862 
	C401.659393,112.305374 422.696136,104.598938 447.342346,110.510834 
	C473.289276,116.734749 488.526154,134.246414 493.841034,160.918228 
	C492.999756,162.141769 492.271515,162.760544 491.543243,163.379333 
	C460.155396,173.221756 441.188904,194.419907 434.002075,226.364014 
	C433.456390,228.789352 433.103516,231.258041 432.318054,233.918884 
z"/>
<path fill="#FBFBF7" opacity="1.000000" stroke="none" 
	d="
M492.574646,183.771667 
	C489.821198,190.094315 487.622772,196.737549 484.195679,202.671097 
	C477.611389,214.070770 467.629272,221.893677 455.299500,227.361298 
	C457.191986,214.367462 464.082672,203.720337 473.858643,195.086182 
	C478.766815,190.751251 484.825531,187.719025 491.070251,183.979950 
	C492.042572,183.832031 492.308624,183.801849 492.574646,183.771667 
z"/>
<path fill="#73AD7A" opacity="1.000000" stroke="none" 
	d="
M492.784485,183.509277 
	C492.308624,183.801849 492.042572,183.832031 491.380066,183.801788 
	C491.383728,177.184357 491.783875,170.627380 491.863617,163.724854 
	C492.271515,162.760544 492.999756,162.141769 493.931091,161.314941 
	C493.754211,168.486908 493.374237,175.866898 492.784485,183.509277 
z"/>
<path fill="#FBFBF7" opacity="1.000000" stroke="none" 
	d="
M408.112122,226.076340 
	C389.480774,218.810654 378.302643,204.651123 372.520203,185.350189 
	C378.885101,188.880280 385.890228,192.107422 391.549927,196.917587 
	C400.309418,204.362305 405.907928,214.165558 408.112122,226.076340 
z"/>
<path fill="#C83870" opacity="1.000000" stroke="none" 
	d="
M150.186920,287.031067 
	C149.477463,286.273315 149.154266,285.542938 148.842926,284.510834 
	C152.493118,282.875610 156.049515,281.216309 159.786819,280.276154 
	C167.647461,278.298828 175.583496,276.599854 183.536789,275.030945 
	C185.054153,274.731659 186.793488,275.557465 188.788025,275.868011 
	C189.145645,275.871826 189.118576,275.901306 189.166519,276.137543 
	C189.378296,276.678406 189.621689,276.892670 189.944626,277.016571 
	C189.944626,277.016571 190.003082,277.006836 190.058273,277.208099 
	C190.231903,277.634674 190.400864,277.811829 190.620316,277.940796 
	C190.733765,278.390472 190.847229,278.840149 190.959381,279.638550 
	C178.608475,282.499664 166.264069,285.038330 153.899857,287.476654 
	C152.858932,287.681946 151.685181,287.213715 150.186920,287.031067 
z"/>
<path fill="#C83870" opacity="1.000000" stroke="none" 
	d="
M187.095459,269.057434 
	C187.403748,269.275787 187.684586,269.818634 187.952393,270.671936 
	C187.648926,270.448914 187.358459,269.915436 187.095459,269.057434 
z"/>
<path fill="#C83870" opacity="1.000000" stroke="none" 
	d="
M188.115387,272.007874 
	C188.399521,271.905975 188.626144,272.139038 188.775620,272.710236 
	C188.484741,272.807495 188.271194,272.572327 188.115387,272.007874 
z"/>
<path fill="#C84774" opacity="1.000000" stroke="none" 
	d="
M146.881302,276.051208 
	C146.602448,276.101593 146.437576,275.862823 146.436584,275.331482 
	C146.706253,275.310089 146.837860,275.551178 146.881302,276.051208 
z"/>
<path fill="#C84774" opacity="1.000000" stroke="none" 
	d="
M147.854279,279.107727 
	C147.639908,279.102631 147.414108,278.829559 147.198593,278.287476 
	C147.420212,278.292267 147.631531,278.566010 147.854279,279.107727 
z"/>
<path fill="#C84774" opacity="1.000000" stroke="none" 
	d="
M189.895294,276.767853 
	C189.621689,276.892670 189.378296,276.678406 189.150360,276.133789 
	C189.339493,276.102234 189.592728,276.310699 189.895294,276.767853 
z"/>
<path fill="#C84774" opacity="1.000000" stroke="none" 
	d="
M190.625092,277.733643 
	C190.400864,277.811829 190.231903,277.634674 190.046036,277.235077 
	C190.284576,277.092041 190.501663,277.247284 190.625092,277.733643 
z"/>
</svg>